<svg xmlns="http://www.w3.org/2000/svg" width="17.294" height="15.645" viewBox="0 0 17.294 15.645"><path d="M15.721,108.253H1.573A1.575,1.575,0,0,1,0,106.68v-4.061H2.043v3.591H15.251v-3.62h2.043v4.09A1.575,1.575,0,0,1,15.721,108.253Z" transform="translate(0 -92.608)" fill="#303030"/><path d="M50.392,5.281H47.967V.552A.553.553,0,0,0,47.415,0H45.073a.553.553,0,0,0-.552.552v4.73H42.1a.446.446,0,0,0-.446.446.438.438,0,0,0,.047.195.453.453,0,0,0,.134.162L45.748,10.8a.563.563,0,0,0,.141.169.562.562,0,0,0,.708,0,.578.578,0,0,0,.141-.169l3.917-4.716.134-.162h0a.438.438,0,0,0,.047-.195.446.446,0,0,0-.446-.446Z" transform="translate(-37.597)" fill="#303030"/></svg>