<svg xmlns="http://www.w3.org/2000/svg" width="61" height="51.998" viewBox="0 0 61 51.998"><path d="M83.7,10.707l.316-.537A4.083,4.083,0,0,0,83.7,10.707Z" transform="translate(-56.73 -6.92)" fill="#0466c8"/><path d="M104.63,10.17l.316.534A3.849,3.849,0,0,0,104.63,10.17Z" transform="translate(-70.916 -6.92)" fill="#0466c8"/><path d="M4.685,52A4.775,4.775,0,0,1,.361,45.4c.061-.147.161-.391,25.541-42.962l.071-.109a5.56,5.56,0,0,1,9.054,0l.071.109C60.478,45.012,60.578,45.256,60.639,45.4a4.772,4.772,0,0,1-4.314,6.592H4.688Zm.061-3.2h51.5a1.57,1.57,0,0,0,1.524-1.573,1.626,1.626,0,0,0-.09-.528c-1-1.736-16.887-28.4-25.322-42.556a2.322,2.322,0,0,0-3.725,0C20.2,18.289,4.311,44.958,3.312,46.694a1.545,1.545,0,0,0-.09.528A1.57,1.57,0,0,0,4.746,48.8Z" fill="#0466c8"/><circle cx="2.72" cy="2.72" r="2.72" transform="translate(26.945 39.021) rotate(-22.5)" fill="#0466c8"/><path d="M86.693,51.491a8.617,8.617,0,0,0-.016,1.927l.093,2.838.221,6.711.061,1.825.058,1.786a2.292,2.292,0,0,0,.153.984,1.95,1.95,0,0,0,1.847,1.1,3.08,3.08,0,0,0,.853-.109,1.927,1.927,0,0,0,1.269-1,1.419,1.419,0,0,0,.121-.617c.01-.246.016-.492.026-.738l.048-1.476.019-.559q.105-3.188.211-6.373l.176-5.356a2.432,2.432,0,0,0-.534-1.953,2.817,2.817,0,0,0-4.1-.029,2.185,2.185,0,0,0-.511,1.042Z" transform="translate(-58.695 -33.679)" fill="#0466c8"/></svg>