<svg xmlns="http://www.w3.org/2000/svg" width="62" height="62" viewBox="0 0 62 62"><path d="M62,62H0V0H62V62ZM31.711,43.508a5.6,5.6,0,0,1,1.134.561l1.5.786.617.323q.576.3,1.15.6.754.392,1.507.788l.176.092.011.006.511.267.759.4c.165.086.333.175.5.264a3.221,3.221,0,0,0,1.2.25,2.62,2.62,0,0,0,1.786-.686,2.865,2.865,0,0,0,.947-2.705L42.082,36.1a.427.427,0,0,1,.135-.389L48.41,29.68a3.023,3.023,0,0,0,.737-2.556,2.911,2.911,0,0,0-2.36-2.225L38.249,23.65a.56.56,0,0,1-.331-.345l-3.727-7.576a3.029,3.029,0,0,0-2.511-1.577h-.014a3.032,3.032,0,0,0-2.513,1.577l-3.728,7.576a.539.539,0,0,1-.328.345L16.561,24.9a2.911,2.911,0,0,0-2.36,2.225,3.006,3.006,0,0,0,.737,2.556l6.193,6.027a.429.429,0,0,1,.135.39l-1.428,8.358a2.868,2.868,0,0,0,.945,2.706,2.625,2.625,0,0,0,1.788.684,3.208,3.208,0,0,0,1.2-.248l.186-.1.064-.034.25-.132.759-.4.51-.267,1.69-.886.955-.5.026-.013.79-.414,1.5-.786A6.678,6.678,0,0,1,31.711,43.508Z" fill="#ffce00"/></svg>