<svg xmlns="http://www.w3.org/2000/svg" width="132" height="132" viewBox="0 0 132 132"><g transform="translate(-4066 -3288)"><g transform="translate(4080 3298.5)"><path d="M73.656,349.187H48.33l2.4-7.967H71.253Z" transform="translate(-33.81 -239.09)" fill="#023e7d"/><path d="M71.556,347.99H46.23a.9.9,0,0,1-.724-.364.894.894,0,0,1-.138-.8l2.4-7.967a.9.9,0,0,1,.862-.64H69.152a.9.9,0,0,1,.862.64l2.4,7.967a.914.914,0,0,1-.138.8A.892.892,0,0,1,71.556,347.99Zm-24.112-1.8h22.9l-1.86-6.165H49.3Z" transform="translate(-31.71 -236.992)" fill="#002855"/><path d="M69.341,311.157a.9.9,0,0,1-.9-.9v-12.4A.9.9,0,0,1,70,297.238L81.59,309.432a.9.9,0,0,1-.64,1.523l-11.593.2Zm.9-11.041v9.223l8.625-.15Z" transform="translate(-47.993 -208.124)" fill="#002855"/><path d="M69.341,311.157a.9.9,0,0,1-.9-.9v-12.4A.9.9,0,0,1,70,297.238l11.789,12.39a.9.9,0,0,1,.174.976.907.907,0,0,1-.829.547l-11.789.006h0Zm.9-11.041v9.238H79.03Z" transform="translate(-47.993 -208.124)" fill="#002855"/><path d="M81.142,311.158a.9.9,0,0,1-.652-.279L68.7,298.489a.9.9,0,0,1-.174-.976.907.907,0,0,1,.829-.547l11.789-.006h0a.9.9,0,0,1,.9.9v12.4a.9.9,0,0,1-.568.838.925.925,0,0,1-.333.063Zm-9.689-12.393L80.24,308v-9.238H71.453Z" transform="translate(-48.002 -208.126)" fill="#002855"/><path d="M69.341,269.9a.9.9,0,0,1-.9-.9V256.6A.9.9,0,0,1,70,255.978L81.59,268.172a.9.9,0,0,1-.64,1.523l-11.593.2Zm.9-11.041v9.223l8.625-.15Z" transform="translate(-47.993 -179.051)" fill="#002855"/><path d="M69.341,269.9a.9.9,0,0,1-.9-.9V256.6A.9.9,0,0,1,70,255.978l11.789,12.39a.9.9,0,0,1,.174.976.907.907,0,0,1-.829.547l-11.789.006h0Zm.9-11.041v9.238H79.03Z" transform="translate(-47.993 -179.051)" fill="#002855"/><path d="M81.142,269.9a.9.9,0,0,1-.652-.279L68.7,257.229a.9.9,0,0,1-.174-.976.907.907,0,0,1,.829-.547l11.789-.006h0a.9.9,0,0,1,.9.9V269a.9.9,0,0,1-.568.838.925.925,0,0,1-.333.063Zm-9.689-12.393,8.787,9.235V257.5H71.453Z" transform="translate(-48.002 -179.052)" fill="#002855"/><path d="M69.341,228.637a.9.9,0,0,1-.9-.9v-12.4A.9.9,0,0,1,70,214.718L81.59,226.912a.9.9,0,0,1-.64,1.523l-11.593.2Zm.9-11.041v9.223l8.625-.15Z" transform="translate(-47.993 -150.058)" fill="#002855"/><path d="M69.341,228.637a.9.9,0,0,1-.9-.9v-12.4A.9.9,0,0,1,70,214.718l11.789,12.39a.9.9,0,0,1,.174.976.907.907,0,0,1-.829.547l-11.789.006Zm.9-11.041v9.238H79.03Z" transform="translate(-47.993 -150.058)" fill="#002855"/><path d="M81.142,228.638a.9.9,0,0,1-.652-.279L68.7,215.969a.9.9,0,0,1-.174-.976.907.907,0,0,1,.829-.547l11.789-.006h0a.9.9,0,0,1,.9.9v12.4a.9.9,0,0,1-.568.838.925.925,0,0,1-.333.063Zm-9.689-12.393,8.787,9.235v-9.238H71.453Z" transform="translate(-48.002 -150.06)" fill="#002855"/><path d="M69.341,187.387a.9.9,0,0,1-.9-.9v-12.4A.9.9,0,0,1,70,173.468L81.59,185.662a.9.9,0,0,1-.64,1.523l-11.593.2Zm.9-11.041v9.223l8.625-.15Z" transform="translate(-47.993 -121.074)" fill="#002855"/><path d="M69.341,187.384a.9.9,0,0,1-.9-.9v-12.4A.9.9,0,0,1,70,173.465l11.789,12.39a.9.9,0,0,1,.174.976.907.907,0,0,1-.829.547l-11.789.006Zm.9-11.041v9.238H79.03Z" transform="translate(-47.993 -121.072)" fill="#002855"/><path d="M81.142,187.388a.9.9,0,0,1-.652-.279L68.7,174.719a.9.9,0,0,1-.174-.976.907.907,0,0,1,.829-.547l11.789-.006h0a.9.9,0,0,1,.9.9v12.4a.9.9,0,0,1-.568.838.924.924,0,0,1-.333.063ZM71.453,175l8.787,9.235v-9.238H71.453Z" transform="translate(-48.002 -121.076)" fill="#002855"/><path d="M69.341,146.127a.9.9,0,0,1-.9-.9v-12.4A.9.9,0,0,1,70,132.208L81.59,144.4a.9.9,0,0,1-.64,1.523l-11.593.2Zm.9-11.041v9.223l8.625-.15Z" transform="translate(-47.993 -92.082)" fill="#002855"/><path d="M69.341,146.124a.9.9,0,0,1-.9-.9v-12.4A.9.9,0,0,1,70,132.205l11.789,12.39a.9.9,0,0,1-.655,1.523l-11.789.006h0Zm.9-11.041v9.238H79.03Z" transform="translate(-47.993 -92.08)" fill="#002855"/><path d="M81.142,146.128a.889.889,0,0,1-.652-.279L68.7,133.459a.9.9,0,0,1-.174-.976.907.907,0,0,1,.829-.547l11.789-.006h0a.9.9,0,0,1,.9.9v12.4a.9.9,0,0,1-.568.838.924.924,0,0,1-.333.063Zm-9.689-12.393,8.787,9.235v-9.238H71.453Z" transform="translate(-48.002 -92.085)" fill="#002855"/><path d="M69.341,104.867a.9.9,0,0,1-.9-.9V91.57A.9.9,0,0,1,70,90.948L81.59,103.143a.9.9,0,0,1-.64,1.523l-11.593.2Zm.9-11.041v9.223l8.625-.15Z" transform="translate(-47.993 -63.091)" fill="#002855"/><path d="M69.341,104.864a.9.9,0,0,1-.9-.9v-12.4A.9.9,0,0,1,70,90.945l11.789,12.39a.9.9,0,0,1-.655,1.523l-11.789.006Zm.9-11.041v9.238H79.03Z" transform="translate(-47.993 -63.087)" fill="#002855"/><path d="M81.142,104.868a.889.889,0,0,1-.652-.279L68.7,92.2a.9.9,0,0,1-.174-.976.907.907,0,0,1,.829-.547l11.789-.006h0a.9.9,0,0,1,.9.9v12.4a.9.9,0,0,1-.568.838.924.924,0,0,1-.333.063ZM71.453,92.476l8.787,9.235V92.473H71.453Z" transform="translate(-48.002 -63.093)" fill="#002855"/><rect width="12.484" height="8.614" rx="4.307" transform="translate(0.368 32.526)" fill="#023e7d"/><path d="M10.782,117.24H2.436A2.44,2.44,0,0,1,0,114.8V110a2.44,2.44,0,0,1,2.436-2.436h8.346A2.44,2.44,0,0,1,13.219,110V114.8A2.44,2.44,0,0,1,10.782,117.24Zm-8.346-7.877A.636.636,0,0,0,1.8,110V114.8a.636.636,0,0,0,.634.634h8.346a.644.644,0,0,0,.634-.634V110a.636.636,0,0,0-.634-.634Z" transform="translate(0 -75.566)" fill="#002855"/><path d="M74.718,54.073H56.693a1.8,1.8,0,0,1-1.8-1.8.779.779,0,0,1,.012-.144L57.3,37.5a1.805,1.805,0,0,1,1.8-1.718H72.315a1.805,1.805,0,0,1,1.8,1.718l2.394,14.628a.78.78,0,0,1,.012.144A1.8,1.8,0,0,1,74.718,54.073Zm0-1.73v0h0Zm0-.072Zm-18.014,0h18L72.327,37.73a.778.778,0,0,1-.012-.144H59.1a.778.778,0,0,1-.012.144Z" transform="translate(-38.501 -25.034)" fill="#002855"/><path d="M19.9,87.753a.9.9,0,0,1-.9-.9v-9.28a.9.9,0,0,1,1.8,0v9.28A.9.9,0,0,1,19.9,87.753Z" transform="translate(-13.292 -53.866)" fill="#002855"/><path d="M20.031,61.481H4.2A1.279,1.279,0,0,1,3,60.147V55.139A1.54,1.54,0,0,1,4.6,53.67H21.26Z" transform="translate(-2.098 -37.549)" fill="#023e7d"/><path d="M17.932,60.284H2.052A2.162,2.162,0,0,1,0,58.048V53A2.42,2.42,0,0,1,2.5,50.67H19.161a.9.9,0,0,1,.889,1.042l-1.229,7.811A.9.9,0,0,1,17.932,60.284Zm-15.8-1.8H17.16l.946-6.009H2.5a.617.617,0,0,0-.7.6v4.972c0,.267.111.415.33.433Z" transform="translate(0 -35.45)" fill="#002855"/><path d="M14.131,17.027a.9.9,0,0,1-.508-1.646L36.008.158A.9.9,0,0,1,37.417.9V11.652a.9.9,0,1,1-1.8,0V2.607L14.636,16.871a.9.9,0,0,1-.5.156Z" transform="translate(-9.256 -0.003)" fill="#002855"/><path d="M137.719,17.029a.841.841,0,0,1-.267-.042L88.371,1.767A.9.9,0,0,1,88.9.046l49.081,15.223a.9.9,0,0,1-.264,1.76Z" transform="translate(-61.64 -0.004)" fill="#002855"/><path d="M272.906,134.712a4.906,4.906,0,1,1,1.151-9.677.9.9,0,0,1-.421,1.754,3.1,3.1,0,1,0,2.373,3.016,3.178,3.178,0,0,0-.027-.418.9.9,0,1,1,1.785-.243,4.8,4.8,0,0,1,.045.658,4.911,4.911,0,0,1-4.906,4.906Z" transform="translate(-187.96 -87.748)" fill="#002855"/><path d="M282.231,92.959a.9.9,0,0,1-.9-.9V77.571a.9.9,0,1,1,1.8,0V92.058A.9.9,0,0,1,282.231,92.959Z" transform="translate(-197.285 -53.88)" fill="#002855"/><path d="M208.056,366.543H158.831a.9.9,0,0,1,0-1.8h49.225a.9.9,0,0,1,0,1.8Z" transform="translate(-110.957 -255.543)" fill="#002855"/><path d="M200.518,229.024V224.04H175.15v43.171h14.955V253.046h11.038v14.165h15.132V229.024H200.521Zm-9.523,15.667h-8.28v-8.28h8.28Zm17.713,0h-8.28v-8.28h8.28Z" transform="translate(-123.004 -157.113)" fill="#002855"/><path d="M178.681,163.148a.9.9,0,0,1-.9-.9V136.611a.9.9,0,1,1,1.8,0v25.635A.9.9,0,0,1,178.681,163.148Z" transform="translate(-124.632 -94.808)" fill="#002855"/><path d="M241.2,163.148a.9.9,0,0,1-.9-.9V136.611a.9.9,0,1,1,1.8,0v25.635A.9.9,0,0,1,241.2,163.148Z" transform="translate(-168.461 -94.808)" fill="#002855"/><path d="M304.011,195.492a.9.9,0,0,1-.9-.9v-18.87a.9.9,0,1,1,1.8,0v18.87A.9.9,0,0,1,304.011,195.492Z" transform="translate(-212.521 -122.26)" fill="#002855"/><path d="M216.334,194.393H178.681a.9.9,0,1,1,0-1.8h37.652a.9.9,0,0,1,0,1.8Z" transform="translate(-124.844 -134.64)" fill="#002855"/><path d="M197.464,149.953H178.681a.9.9,0,1,1,0-1.8h18.783a.9.9,0,0,1,0,1.8Z" transform="translate(-124.695 -103.429)" fill="#002855"/><path d="M171.992,53.67h-54.3l1.277,7.811h53.025a3.906,3.906,0,1,0,0-7.811Z" transform="translate(-81.386 -37.549)" fill="#023e7d"/><path d="M169.9,60.277H116.879a.9.9,0,0,1-.889-.757l-1.277-7.811a.9.9,0,0,1,.889-1.048h54.3a4.807,4.807,0,1,1,0,9.614Zm-52.259-1.8H169.9a3,3,0,0,0,0-6.009H116.659l.982,6.009Z" transform="translate(-79.295 -35.443)" fill="#002855"/></g><g transform="translate(4066 3288)" fill="#fff" stroke="#707070" stroke-width="1" opacity="0.001"><rect width="132" height="132" stroke="none"/><rect x="0.5" y="0.5" width="131" height="131" fill="none"/></g></g></svg>