<svg xmlns="http://www.w3.org/2000/svg" width="132" height="132" viewBox="0 0 132 132"><g transform="translate(-4066 -2819)"><g transform="translate(3627.334 -3862)"><path d="M95.638,20.24h0V5a4.991,4.991,0,0,0-4.967-5h-4.36a4.991,4.991,0,0,0-4.967,5V20.24H17.982V2.947l-.3-.32A9.7,9.7,0,0,0,8.378.435,11.62,11.62,0,0,0,.022,9.776L0,9.886.082,71.944A11.029,11.029,0,0,0,11.057,83H104V20.24H95.638ZM83.525,13.629h9.923V60.766H83.525V13.629ZM11.055,80.8a8.856,8.856,0,0,1,0-17.711A8.674,8.674,0,0,1,16.24,64.79c.005.006.011.006.019.011a.994.994,0,0,0,.107.063c.027.017.055.033.082.047a1.031,1.031,0,0,0,.1.033c.036.011.071.025.107.033s.057.008.085.011a1.062,1.062,0,0,0,.131.014h.019a.517.517,0,0,0,.068-.008.65.65,0,0,0,.126-.014c.033-.006.063-.017.1-.025s.071-.019.107-.033a.913.913,0,0,0,.09-.044c.033-.017.066-.033.1-.052a.932.932,0,0,0,.082-.063.992.992,0,0,0,.082-.069.8.8,0,0,0,.079-.088c.016-.019.036-.036.049-.055a.058.058,0,0,1,.011-.017.878.878,0,0,0,.063-.11c.014-.028.03-.052.044-.08s.025-.069.036-.1.025-.069.033-.1.008-.061.014-.094.011-.083.014-.124V22.443H81.336V61.89a.949.949,0,0,0,.019.2c0,.008.005.017.005.025a1.226,1.226,0,0,0,.049.163l.016.044a.116.116,0,0,1,.011.028l6.055,12.77a1.089,1.089,0,0,0,1.974,0l6.055-12.77s.008-.019.011-.028a.308.308,0,0,1,.019-.044.854.854,0,0,0,.049-.163c0-.008.005-.017.005-.025a.931.931,0,0,0,.019-.2V22.443H101.8V80.8H11.055Z" transform="translate(452.667 6725)" fill="#002855"/><path d="M320.791,106.462a1.091,1.091,0,0,0,1.091-1.091V72.791a1.091,1.091,0,1,0-2.183,0v32.579A1.091,1.091,0,0,0,320.791,106.462Z" transform="translate(220.392 6673.187)" fill="#002855"/><path d="M305.543,10.775A2.777,2.777,0,0,1,308.317,8h4.352a2.777,2.777,0,0,1,2.775,2.775v6.36h-9.9v-6.36h0Z" transform="translate(230.689 6719.183)" fill="#023e7d"/><path d="M316.532,228.61l-4.311,9.025-4.311-9.025h8.622Z" transform="translate(228.965 6559.549)" fill="#023e7d"/><path d="M14.662,8.62l.033-.008A7.781,7.781,0,0,1,21.589,9.9V67.436a10.948,10.948,0,0,0-13.508,3.34l-.071-54.7A9.38,9.38,0,0,1,14.662,8.62Z" transform="translate(446.842 6718.942)" fill="#023e7d"/><path d="M182.871,107.663h21.139a1.091,1.091,0,0,0,0-2.183H182.871a1.091,1.091,0,0,0,0,2.183Z" transform="translate(320.606 6648.582)" fill="#002855"/><path d="M182.871,134.663H196.9a1.091,1.091,0,1,0,0-2.183H182.871a1.091,1.091,0,1,0,0,2.183Z" transform="translate(320.596 6629.021)" fill="#002855"/><path d="M182.871,161.663h21.139a1.091,1.091,0,0,0,0-2.183H182.871a1.091,1.091,0,0,0,0,2.183Z" transform="translate(320.606 6609.46)" fill="#002855"/><path d="M113.233,123.216l-4.464,4.464-2.016-2.016a1.092,1.092,0,0,0-1.544,1.544l3.56,3.561,6.005-6.005a1.092,1.092,0,0,0-1.544-1.544h0Z" transform="translate(376.455 6635.986)" fill="#002855"/><path d="M88.721,120.135h17.442a1.091,1.091,0,0,0,1.091-1.091V101.6a1.091,1.091,0,0,0-1.091-1.091H88.721A1.091,1.091,0,0,0,87.63,101.6v17.442A1.091,1.091,0,0,0,88.721,120.135Zm1.091-17.442h15.26v15.26H89.813Z" transform="translate(389.002 6652.257)" fill="#002855"/><path d="M132.83,206.472h-11.4V201.5a1.091,1.091,0,0,0-1.091-1.091H108.881v-2.728a1.091,1.091,0,0,0-1.091-1.091H95.179a1.091,1.091,0,0,0-1.091,1.091v8.791H82.871a1.091,1.091,0,0,0-1.091,1.091v9.579a1.091,1.091,0,0,0,1.091,1.091H132.83a1.091,1.091,0,0,0,1.091-1.091v-9.579a1.091,1.091,0,0,0-1.091-1.091Z" transform="translate(393.285 6582.833)" fill="#002855"/><path d="M89.78,240.81H99.9v7.4H89.78v-7.4Z" transform="translate(387.434 6550.678)" fill="#023e7d"/><path d="M134.89,213.381V204.59h10.428v17.279H134.89v-8.488Z" transform="translate(354.658 6577.016)" fill="#0466c8"/><path d="M181.11,218.59h10.368v13.459H181.11V218.59Z" transform="translate(321.076 6566.836)" fill="#023e7d"/><rect width="10.308" height="7.397" transform="translate(514.763 6791.488)" fill="#678dce"/></g><g transform="translate(4066 2819)" fill="#fff" stroke="#707070" stroke-width="1" opacity="0.023"><rect width="132" height="132" stroke="none"/><rect x="0.5" y="0.5" width="131" height="131" fill="none"/></g></g></svg>