<svg xmlns="http://www.w3.org/2000/svg" width="132" height="132" viewBox="0 0 132 132"><g transform="translate(-1892 -1743)"><g transform="translate(742 -5233)"><path d="M451.042,850.462H440.378a2.164,2.164,0,0,0-2.159,2.156v1.51H432.5a2.164,2.164,0,0,0-2.159,2.156V857.3a18.939,18.939,0,0,1-7.685-2.458l-12.089-6.469c-.281-.129-7.016-3.04-13.1-.561l-9.693,3.536-6.973-7.029a1.37,1.37,0,0,0-1.943,0L356.08,866.85a1.37,1.37,0,0,0-.41.97,1.447,1.447,0,0,0,.389.97l38.835,39.179a1.374,1.374,0,0,0,.972.41h0a1.374,1.374,0,0,0,.971-.41l21.2-21.218c.41.022.82.065,1.187.065a19.494,19.494,0,0,0,4.145-.431,16.864,16.864,0,0,0,8.786-7.159c.108,0,.216.065.345.065h6.3a2.077,2.077,0,0,1,1.554,0h10.664a2.164,2.164,0,0,0,2.159-2.156V852.661a2.164,2.164,0,0,0-2.159-2.156Z" transform="translate(814.821 6155.088)" fill="#002855"/><path d="M373.265,858.375a9.242,9.242,0,0,0,4.83,4.161l4.916,1.682a8.2,8.2,0,1,1-10.372-9.078A6.635,6.635,0,0,0,373.265,858.375Z" transform="translate(827.624 6168.131)" fill="#fff"/><path d="M380.388,859.342a10.93,10.93,0,1,0,12.377,12.916l8.366,2.889a1.437,1.437,0,0,1,.108.151,11.253,11.253,0,0,0,2.113,10.652l-5.585,5.606a12.247,12.247,0,0,0-15.2-.021L360.55,869.3a11.791,11.791,0,0,0,.086-14.6l5.8-5.736a12.044,12.044,0,0,0,15.266.065l5.887,5.93a6.621,6.621,0,0,0-7.224,4.377Z" transform="translate(820.494 6160.936)" fill="#023e7d"/><path d="M369.914,845.44l5.649,5.714a9.477,9.477,0,0,1-11.364-.065Z" transform="translate(824.713 6156.853)" fill="#fff"/><path d="M362.591,852.52a9.059,9.059,0,0,1-.065,10.717l-5.326-5.369,5.391-5.326Z" transform="translate(816.589 6165.085)" fill="#fff"/><path d="M377.319,876.32l-5.649-5.714a9.509,9.509,0,0,1,11.32.022Z" transform="translate(833.37 6183.929)" fill="#fff"/><path d="M382.28,868.608a8.343,8.343,0,0,1-1.747-6.318,10.615,10.615,0,0,0,2.113,1.229h0a11.873,11.873,0,0,0,3.3,1.4l-3.687,3.687Z" transform="translate(843.565 6176.429)" fill="#fff"/><path d="M405.146,880.671s-5.692,1.272-9.94-1.38a7.909,7.909,0,0,1-3.644-3.105l-.259-.5-16.948-5.822a6.407,6.407,0,0,1-3.256-2.76,4.746,4.746,0,0,1,0-3.773,3.959,3.959,0,0,1,4.808-2.846l18.932,6.037a1.4,1.4,0,0,0,1.725-.884,1.38,1.38,0,0,0-.884-1.725l-14.469-4.593-8.776-8.862,8.539-3.126c5-2.027,10.889.474,10.911.474h0l11.9,6.361a22,22,0,0,0,9.056,2.867v16.733a14.108,14.108,0,0,1-7.719,6.921Z" transform="translate(832.281 6158.128)" fill="#fff"/><rect width="5.11" height="19.622" transform="translate(1247.925 7011.976)" fill="#023e7d"/><path d="M404.646,871.518H395.18V848.23h9.466Z" transform="translate(860.615 6160.08)" fill="#fff"/><path d="M441.042,886.192a11.175,11.175,0,0,0-6.153.69c-.5.151-.993.323-1.49.452l-13.233,3.536a8.375,8.375,0,0,0-4.318-5.455L399.722,880a2.867,2.867,0,0,1-1.209-.992c-4.555-4.356-9.218-6.274-13.773-5.65-6.088.8-10.082,5.8-11.355,7.612h-7.016a1.287,1.287,0,0,0-.5.108h-11.83a1.391,1.391,0,0,0-1.382,1.38v26.177a1.39,1.39,0,0,0,1.382,1.38h12.327a1.39,1.39,0,0,0,1.382-1.38v-2.393h6.368a1.391,1.391,0,0,0,1.382-1.38v-1.336a10.6,10.6,0,0,1,7.038,1.833l12.025,6.447a13.546,13.546,0,0,0,7.513,1.962,22.311,22.311,0,0,0,5.483-.69l29.252-10.63c3.713-1.359,11.463-4.162,9.585-11.17a7.024,7.024,0,0,0-5.354-5.046Z" transform="translate(811.34 6189.23)" fill="#002855"/><path d="M363.5,901.557H353.93V878.14H363.5v23.417Z" transform="translate(812.809 6194.889)" fill="#fff"/><rect width="4.981" height="19.751" transform="translate(1179.073 7072.92)" fill="#023e7d"/><path d="M423.541,898.346l-29.11,10.609s-6.6,1.747-10.738-1.013l-11.924-6.382a13.133,13.133,0,0,0-8.539-2.307V881.269c.841-1.25,4.4-5.994,9.617-6.663,3.709-.5,7.568,1.164,11.3,4.7a5.048,5.048,0,0,0,2.48,1.832l15.827,5.305a5.14,5.14,0,0,1,2.286,6.922,4.62,4.62,0,0,1-5.326,2.178l-19.018-6.21a1.371,1.371,0,0,0-.841,2.609l19.04,6.21a7.2,7.2,0,0,0,8.6-3.558,9.087,9.087,0,0,0,.69-2.372l13.886-3.73c.539-.151,1.078-.323,1.6-.5,1.7-.539,3.148-.992,4.679-.625a4.3,4.3,0,0,1,3.342,3.084c1.013,3.795-2.264,5.844-7.87,7.87Z" transform="translate(823.672 6190.702)" fill="#fff"/></g><g transform="translate(1892 1743)" fill="#fff" stroke="#707070" stroke-width="1" opacity="0"><rect width="132" height="132" stroke="none"/><rect x="0.5" y="0.5" width="131" height="131" fill="none"/></g></g></svg>