<svg xmlns="http://www.w3.org/2000/svg" width="136" height="132" viewBox="0 0 136 132"><g transform="translate(-5574 -1011)"><g transform="translate(4694.001 -5966.5)"><rect width="27.336" height="4.17" rx="1.25" transform="translate(964.07 7003.129)" fill="#002855"/><path d="M215.122,38.5a.912.912,0,0,1,0-1.825h21.235v0a.912.912,0,0,1,0,1.825H215.122Z" transform="translate(751.934 6973.808)" fill="#002855"/><path d="M195.572,48.472a.912.912,0,0,1,0-1.825l36.372-.008a.912.912,0,0,1,0,1.825Z" transform="translate(763.763 6967.773)" fill="#002855"/><path d="M195.572,69.2a.912.912,0,0,1,0-1.825l36.372-.008a.912.912,0,0,1,0,1.825Z" transform="translate(763.763 6955.155)" fill="#002855"/><path d="M195.582,79.568a.912.912,0,0,1,0-1.825h17.064v0a.912.912,0,0,1,0,1.825H195.582Z" transform="translate(763.757 6948.868)" fill="#002855"/><path d="M248.762,79.565a.912.912,0,1,1,0-1.825h9.885a.912.912,0,0,1,0,1.825Z" transform="translate(731.578 6948.868)" fill="#002855"/><path d="M195.572,58.832a.912.912,0,0,1,0-1.825L222.754,57h0a.912.912,0,1,1,0,1.825l-27.182.008Z" transform="translate(763.763 6961.443)" fill="#023e7d"/><path d="M208.772,123.129a.9.9,0,0,1-.644-.269l-3.207-3.2a.913.913,0,0,1,1.291-1.291l2.559,2.559,3.91-3.914a.913.913,0,0,1,1.291,1.291l-4.553,4.557a.915.915,0,0,1-.644.269h0Z" transform="translate(757.715 6925.217)" fill="#023e7d"/><path d="M247.063,120.946a.888.888,0,0,1-.3-.051.914.914,0,0,1-.561-1.161l2.247-6.461c.036-.095.067-.2.1-.3a2.955,2.955,0,0,1,1.56-2.113,1.727,1.727,0,0,1,1.394.012,2.25,2.25,0,0,1,1.118,1.406.79.79,0,0,1,.043.213l.344,4.123a.222.222,0,0,1,.008.039l.829-.96a.678.678,0,0,1,.075-.075,2.173,2.173,0,0,1,1.828-.545,2,2,0,0,1,1.374,1.382c.071.17.134.367.205.577a5.463,5.463,0,0,0,.415,1.031,4.054,4.054,0,0,0,.766-.889c.138-.194.28-.395.43-.573l2.085-2.484a.911.911,0,1,1,1.394,1.173l-2.085,2.484c-.1.122-.217.284-.34.458a3.973,3.973,0,0,1-1.726,1.6,1.586,1.586,0,0,1-1.268-.051,3.388,3.388,0,0,1-1.4-2.188c-.059-.178-.115-.348-.158-.45,0-.012-.012-.028-.016-.039a1,1,0,0,0-.115-.237,1.065,1.065,0,0,0-.126.075l-.932,1.082c-.024.028-.051.055-.079.083a1.688,1.688,0,0,1-1.749.49,2.194,2.194,0,0,1-1.208-1.71.485.485,0,0,1-.008-.075l-.34-4.048a.936.936,0,0,0-.1-.194c-.205.115-.344.557-.466.952-.04.122-.075.245-.115.359l-2.247,6.461a.915.915,0,0,1-.861.612Zm3.756-8.408Z" transform="translate(732.606 6928.869)" fill="#023e7d"/><path d="M283.627,111.353l1.058-1.813,3.365,2.18-.964,1.651.016-.024a2,2,0,0,1-3.46-2.014" transform="translate(710.086 6929.587)" fill="#002855"/><path d="M288.66,102.2a.9.9,0,0,1-.494-.146l-3.365-2.18a.908.908,0,0,1-.363-1.07l2.073-5.888a.913.913,0,0,1,1.319-.486l5.252,3.061a.922.922,0,0,1,.438.62.907.907,0,0,1-.182.735l-3.965,5a.915.915,0,0,1-.715.348ZM286.4,98.738l2.065,1.335,2.8-3.531-3.392-1.979-1.469,4.17Z" transform="translate(709.471 6940.03)" fill="#002855"/><path d="M295.809,72.419a.925.925,0,0,1-.458-.122L290.1,69.236a.914.914,0,0,1-.328-1.248l9.431-16.18a.914.914,0,0,1,1.248-.328l5.252,3.061a.912.912,0,0,1,.422.557.9.9,0,0,1-.095.691L296.6,71.968a.926.926,0,0,1-.79.454Zm-4-4.3,3.677,2.144L304,55.654l-3.677-2.144-8.51,14.6Z" transform="translate(706.288 6964.85)" fill="#002855"/><g transform="translate(1005.365 7011.035)"><rect width="6.062" height="6.082" transform="translate(0.918 6.152) rotate(-59.76)" fill="#023e7d"/><path d="M319.689,48.2a.916.916,0,0,1-.458-.122l-5.252-3.061a.914.914,0,0,1-.328-1.248l3.053-5.237a.913.913,0,0,1,.557-.423.9.9,0,0,1,.691.095l5.252,3.061a.914.914,0,0,1,.328,1.248l-3.053,5.237a.909.909,0,0,1-.79.454Zm-4-4.3,3.677,2.144,2.133-3.661-3.677-2.144Z" transform="translate(-313.526 -38.082)" fill="#002855"/></g><path d="M315.027,65.758a.909.909,0,0,1-.786-1.37l4.218-7.239a1.14,1.14,0,0,0,.178-1,2.837,2.837,0,0,0-1.481-1.268.793.793,0,0,1-.13-.063L308.918,50.1a.912.912,0,0,1,.92-1.576l8.048,4.692a4.5,4.5,0,0,1,2.468,2.33,2.929,2.929,0,0,1-.32,2.524L315.817,65.3a.909.909,0,0,1-.79.454Z" transform="translate(694.9 6966.647)" fill="#002855"/><path d="M327.8,38.658a.916.916,0,0,1-.458-.122l-3.5-2.042a.912.912,0,0,1-.423-.557.9.9,0,0,1,.095-.691l1.137-1.951a2.94,2.94,0,0,1,5.079,2.962l-1.137,1.951a.909.909,0,0,1-.79.454Zm-2.255-3.282,1.927,1.122.679-1.165a1.115,1.115,0,0,0-1.927-1.122Z" transform="translate(685.875 6976.732)" fill="#002855"/><path d="M214.1,105.131a8.661,8.661,0,0,0-6.157-2.551h0a8.62,8.62,0,0,0-5.1,1.686v2.445c.083-.091.146-.2.233-.284a6.844,6.844,0,0,1,4.869-2.018h0a6.887,6.887,0,1,1,0,13.775h0a6.847,6.847,0,0,1-4.869-2.014c-.091-.091-.154-.193-.237-.288v2.445a8.623,8.623,0,0,0,5.106,1.686h0a8.713,8.713,0,0,0,6.157-14.873Z" transform="translate(758.813 6933.79)" fill="#023e7d"/><g transform="translate(953.948 6996)"><path d="M185.162,34.849l-.008-31.921a1.092,1.092,0,0,1,1.086-1.086l41.754-.008a1.085,1.085,0,0,1,1.086,1.086l.008,27.976a.912.912,0,0,0,1.825,0l-.008-27.976A2.916,2.916,0,0,0,227.995.01h0L186.241.022a2.912,2.912,0,0,0-2.911,2.911l.008,31.921h1.825Z" transform="translate(-183.33 -0.01)" fill="#002855"/><path d="M243.207,105.692a.912.912,0,1,0-1.824,0v16.97a1.08,1.08,0,0,1-1.082,1.086l-36.66.008v1.824l36.66-.008a2.916,2.916,0,0,0,2.911-2.911v-16.97Z" transform="translate(-195.619 -63.405)" fill="#002855"/></g><path d="M79.278,210.7c-.19,0-.375,0-.557-.008s-.387-.008-.557-.008H57.7a1.189,1.189,0,1,1,0-2.377H78.16c.2.016.407,0,.608.008,1.129.028,1.742.012,2.267-.521a4.022,4.022,0,0,0,.873-3.27,3.3,3.3,0,0,0-3.448-2.954h-.036c-3.215.024-6.485.016-9.644.008q-2.405-.006-4.814-.008a5.491,5.491,0,0,1-3.045-.6c-11.658-6.508-24.552-4.332-24.682-4.309a1.189,1.189,0,0,1-.419-2.342c.561-.1,13.9-2.373,26.345,4.624a1.207,1.207,0,0,1,.118.075,5.453,5.453,0,0,0,1.674.166q2.411,0,4.818.008c3.155.008,6.413.016,9.62-.008h.051a5.687,5.687,0,0,1,5.8,4.976,6.389,6.389,0,0,1-1.524,5.292,4.479,4.479,0,0,1-3.459,1.24ZM62.506,199.222Zm0,0Zm0,0Zm0,0Zm0,0Zm0,0Z" transform="translate(859.917 6878.811)" fill="#002855"/><path d="M62.262,235.975a22.273,22.273,0,0,1-8.791-1.659l-17.878-7.389a1.188,1.188,0,0,1,.908-2.2l17.894,7.4c7.606,3.278,17.151.008,17.246-.024L101.1,220.6c2.389-1.418,1.331-4.23,1.2-4.545a3.458,3.458,0,0,0-4.127-1.836l-11.4,5.015a17.1,17.1,0,0,1-6.907,2.239,1.189,1.189,0,0,1-.15-2.373h0a14.945,14.945,0,0,0,5.908-1.951.755.755,0,0,1,.126-.063L97.307,212a1.137,1.137,0,0,1,.162-.059,5.828,5.828,0,0,1,7.022,3.179c.742,1.769,1.208,5.608-2.287,7.586a1.4,1.4,0,0,1-.154.075L72.467,234.332a33.749,33.749,0,0,1-10.2,1.643Z" transform="translate(859.908 6868.025)" fill="#002855"/><path d="M114.568,145.715a1.19,1.19,0,0,1-1.189-1.189V106.977H72.967v28.568a1.189,1.189,0,0,1-2.377,0V105.789a1.19,1.19,0,0,1,1.189-1.189h42.789a1.19,1.19,0,0,1,1.189,1.189v38.737A1.19,1.19,0,0,1,114.568,145.715Z" transform="translate(838.458 6932.787)" fill="#002855"/><path d="M93.809,188.127h-3.08a1.189,1.189,0,0,1,0-2.377h3.08a1.189,1.189,0,0,1,0,2.377Z" transform="translate(826.971 6883.695)" fill="#002855"/><path d="M129.963,188.127H109.009a1.189,1.189,0,1,1,0-2.377h20.954a1.189,1.189,0,0,1,0,2.377Z" transform="translate(815.97 6883.695)" fill="#002855"/><path d="M120.148,164.5H95.7a1.189,1.189,0,1,1,0-2.377h24.449a1.189,1.189,0,0,1,0,2.377Z" transform="translate(824.004 6897.982)" fill="#023e7d"/><path d="M115.16,143.186h-7.041A1.19,1.19,0,0,1,106.93,142V128.089a1.19,1.19,0,0,1,1.189-1.189h7.041a1.19,1.19,0,0,1,1.189,1.189V142A1.19,1.19,0,0,1,115.16,143.186Zm-5.857-2.377h4.668V129.273H109.3Z" transform="translate(816.483 6919.286)" fill="#023e7d"/><path d="M133.346,153.842h-7.4a1.19,1.19,0,0,1-1.189-1.189V145.7a1.19,1.19,0,0,1,1.189-1.189h7.4a1.19,1.19,0,0,1,1.189,1.189v6.955A1.19,1.19,0,0,1,133.346,153.842Z" transform="translate(805.726 6908.633)" fill="#023e7d"/><path d="M194.729,182.307a1.187,1.187,0,0,1-.217-2.354c7.839-1.441,15.421-7.736,15.5-7.8a1.189,1.189,0,0,1,1.528,1.821c-.328.276-8.127,6.757-16.594,8.313a1.38,1.38,0,0,1-.217.02Z" transform="translate(764.253 6892.091)" fill="#002855"/><path d="M100.254,43.516a.722.722,0,0,1-.13-.008A1.188,1.188,0,0,1,99.069,42.2c.024-.213,2.4-20.232,22.727-28.667l-6.954-2.026a1.189,1.189,0,1,1,.663-2.283l10.434,3.037a1.186,1.186,0,0,1,.028,2.271c-22,7-24.441,27.068-24.536,27.917a1.188,1.188,0,0,1-1.181,1.058Z" transform="translate(821.26 6990.444)" fill="#002855"/><path d="M154.268,29.483a1.19,1.19,0,0,1-1.106-1.623l4.028-10.236a1.188,1.188,0,0,1,2.212.869l-4.028,10.236A1.187,1.187,0,0,1,154.268,29.483Z" transform="translate(788.633 6985.788)" fill="#002855"/><g transform="translate(881 7071.765)"><rect width="14.659" height="25.026" rx="1" transform="translate(0.296 0.296)" fill="#023e7d"/><path d="M13.767,217.138H1.485A1.488,1.488,0,0,1,0,215.653V193a1.486,1.486,0,0,1,1.485-1.485H13.767A1.488,1.488,0,0,1,15.252,193v22.648A1.486,1.486,0,0,1,13.767,217.138ZM1.485,192.112A.894.894,0,0,0,.592,193v22.648a.894.894,0,0,0,.893.893H13.767a.894.894,0,0,0,.893-.893V193a.894.894,0,0,0-.893-.893Z" transform="translate(0 -191.52)" fill="#002855"/></g></g><g transform="translate(5574 1011)" fill="#fff" stroke="#707070" stroke-width="1" opacity="0"><rect width="136" height="132" stroke="none"/><rect x="0.5" y="0.5" width="135" height="131" fill="none"/></g></g></svg>