<svg xmlns="http://www.w3.org/2000/svg" width="132" height="132" viewBox="0 0 132 132"><g transform="translate(-4329 -2819)"><g transform="translate(3242.5 -3987.188)"><path d="M13.283,44.86a1.136,1.136,0,0,0,1.6,0l.586-.585c1.373,3.228,4.749,10.418,8.7,13.439L43.5,71.75a9.591,9.591,0,0,0,4.384,9.359A17.85,17.85,0,0,0,45.511,82l-.017-.02-.756.384A18.3,18.3,0,0,0,34.669,98.734v1.13H71.478v-1.13A18.293,18.293,0,0,0,61.409,82.36l-.756-.384-.017.02a18.834,18.834,0,0,0-2.377-.887,9.668,9.668,0,0,0,4.166-5.736,8.613,8.613,0,0,0,2.581.429,6.149,6.149,0,0,0,2.6-.554,6.951,6.951,0,0,0,3.464-4l.045-.152.088-6.715,7.59,7.2.11.065a6.5,6.5,0,0,0,3.167.827,5.771,5.771,0,0,0,4.48-2.118,6.408,6.408,0,0,0,.059-8.269L70.148,42.993a5.1,5.1,0,0,0-.388-.443l-.076-.073L49.71,29.4a12.218,12.218,0,0,0-5.985-2.222l-10.3-.836,1.723-1.72a1.13,1.13,0,0,0,0-1.6L23.2,11.09a1.136,1.136,0,0,0-1.6,0L1.321,31.324a1.13,1.13,0,0,0,0,1.6L13.283,44.86Zm45.262,20.2A9.615,9.615,0,0,0,53.969,63.4a7.622,7.622,0,0,0-1.4-2.544.947.947,0,0,0-.116-.121L37.89,47.5,54.051,52.05c.317.113,4.273,1.627,4.491,5.721V65.06Zm.439,18.681-5.909,6.235-5.909-6.235a16.208,16.208,0,0,1,11.818,0Zm25.9-14.9-.025.028a3.739,3.739,0,0,1-4.695.884L71.252,61.3l.175-13.366,13.4,15.538a4.115,4.115,0,0,1,.051,5.368Zm-41.328-39.4a9.942,9.942,0,0,1,4.777,1.754l.048.04,19.855,13,.218.254a3.606,3.606,0,0,1,.73,2.53l-.006.054-.314,23.654a4.639,4.639,0,0,1-2.219,2.488,5.13,5.13,0,0,1-3.917-.116v-.1a9.569,9.569,0,0,0-1.919-5.758V57.684c-.286-5.786-5.818-7.7-6.053-7.783l-.054-.017L36.4,44.73a1.132,1.132,0,0,0-1.438,1.132l.062,1.632a1.127,1.127,0,0,0,.368.791L50.859,62.346A5.14,5.14,0,0,1,51.943,64.6a13.716,13.716,0,0,1,0,1.6,5.3,5.3,0,0,1-1.1,2.338,1.5,1.5,0,0,0-.1.133c-1.336,2.062-4.61,1.573-5.651,1.358l-.226-.09L25.523,55.9c-3.86-2.951-7.349-10.983-8.323-13.358l14.133-14.1,12.217.994Z" transform="translate(1099.79 6821.471)" fill="#002855"/><path d="M26.743,256.929l-.756-.385-.017.02a18.634,18.634,0,0,0-2.338-.877,9.851,9.851,0,1,0-10.454,0,17.789,17.789,0,0,0-2.338.877l-.017-.02-.756.385A18.336,18.336,0,0,0,0,273.337v1.132H36.809v-1.132A18.336,18.336,0,0,0,26.74,256.929Zm-8.337.266a15.991,15.991,0,0,1,5.909,1.118l-5.909,6.248L12.5,258.313A15.945,15.945,0,0,1,18.406,257.195Z" transform="translate(1100.5 6658.718)" fill="#023e7d"/><path d="M266.876,256.929l-.756-.385-.017.02a18.637,18.637,0,0,0-2.338-.877,9.852,9.852,0,1,0-10.457,0,17.787,17.787,0,0,0-2.338.877l-.017-.02-.756.385a18.333,18.333,0,0,0-10.069,16.408v1.132h36.809v-1.132a18.336,18.336,0,0,0-10.069-16.408Zm-8.337.266a16,16,0,0,1,5.909,1.118l-5.909,6.248-5.909-6.248A15.934,15.934,0,0,1,258.539,257.195Z" transform="translate(927.561 6658.718)" fill="#023e7d"/><path d="M212.282,43.314h20.073a1.132,1.132,0,0,0,0-2.264H212.282a1.132,1.132,0,0,0,0,2.264Z" transform="translate(948.55 6799.754)" fill="#002855"/><path d="M320.382,1.6,318.78,0,306.009,12.772l-2.42-2.417-1.6,1.6,4.018,4.019Z" transform="translate(883.207 6829.187)" fill="#002855"/><path d="M212.282,91.314H225.73a1.132,1.132,0,0,0,0-2.264H212.282a1.132,1.132,0,1,0,0,2.264Z" transform="translate(948.591 6765.292)" fill="#002855"/><path d="M275.767,89.05h-2.935a1.132,1.132,0,0,0,0,2.264h2.935a1.132,1.132,0,1,0,0-2.264Z" transform="translate(905.099 6765.292)" fill="#002855"/><path d="M212.282,67.5h20.073a1.132,1.132,0,0,0,0-2.264H212.282a1.132,1.132,0,0,0,0,2.264Z" transform="translate(948.55 6782.705)" fill="#002855"/><path d="M305.718,86.106a4.528,4.528,0,1,0-4.528-4.528A4.534,4.534,0,0,0,305.718,86.106Zm0-6.792a2.264,2.264,0,1,1-2.264,2.264A2.267,2.267,0,0,1,305.718,79.314Z" transform="translate(883.78 6773.898)" fill="#002855"/></g><g transform="translate(4329 2819)" fill="#fff" stroke="#707070" stroke-width="1" opacity="0"><rect width="132" height="132" stroke="none"/><rect x="0.5" y="0.5" width="131" height="131" fill="none"/></g></g></svg>