<svg xmlns="http://www.w3.org/2000/svg" width="132" height="132" viewBox="0 0 132 132"><g transform="translate(-1629 -367)"><g transform="translate(908 -6316)"><path d="M48.447,102.1a16.3,16.3,0,0,1,19.532-15.96V47.1l-19.8-19.8H6.394A3.4,3.4,0,0,0,3,30.694v80.782a3.4,3.4,0,0,0,3.394,3.394H54.627a16.25,16.25,0,0,1-6.18-12.764Z" transform="translate(744.783 6690.828)" fill="#fff"/><path d="M52.41,113.434H4.177A4.183,4.183,0,0,1,0,109.257V28.477A4.183,4.183,0,0,1,4.177,24.3H45.961a.782.782,0,0,1,.553.23l19.8,19.8a.787.787,0,0,1,.23.553V83.929a.784.784,0,0,1-.94.768A15.5,15.5,0,0,0,52.9,112.04a.783.783,0,0,1-.486,1.4ZM4.177,25.867a2.615,2.615,0,0,0-2.611,2.611V109.26a2.615,2.615,0,0,0,2.611,2.611H50.363A17.064,17.064,0,0,1,62.514,82.822,17.279,17.279,0,0,1,64.979,83V45.21L45.638,25.867Z" transform="translate(747 6693.045)" fill="#002855"/><path d="M176.63,27.89V44.038a3.4,3.4,0,0,0,3.394,3.394h16.148Z" transform="translate(616.806 6690.391)" fill="#0466c8"/><path d="M193.955,46H177.807a4.183,4.183,0,0,1-4.177-4.177V25.675a.783.783,0,0,1,1.337-.553l19.542,19.542A.783.783,0,0,1,193.955,46ZM175.2,27.566V41.824a2.615,2.615,0,0,0,2.611,2.611h14.258Z" transform="translate(619.027 6692.606)" fill="#002855"/><circle cx="16.284" cy="16.284" r="16.284" transform="translate(793.649 6776.647)" fill="#fff"/><path d="M191.137,282.584A17.067,17.067,0,1,1,208.2,265.517,17.088,17.088,0,0,1,191.137,282.584Zm0-32.568a15.5,15.5,0,1,0,15.5,15.5A15.517,15.517,0,0,0,191.137,250.016Z" transform="translate(618.796 6527.416)" fill="#002855"/><path d="M99.508,3H44.347A3.416,3.416,0,0,0,40.93,6.394v2.95H76.445l19.938,19.8V68.19a16.365,16.365,0,0,1,6.543,2.914V6.394A3.416,3.416,0,0,0,99.508,3Z" transform="translate(716.756 6708.783)" fill="#fff"/><path d="M100.7,69.67a.785.785,0,0,1-.473-.157A15.472,15.472,0,0,0,94,66.741a.782.782,0,0,1-.631-.768V27.255L73.9,7.911H38.718a.785.785,0,0,1-.788-.783V4.177A4.2,4.2,0,0,1,42.135,0H97.287a4.2,4.2,0,0,1,4.205,4.177v64.71a.78.78,0,0,1-.436.7A.793.793,0,0,1,100.7,69.67Zm-5.753-4.324a16.933,16.933,0,0,1,4.965,2.06V4.177a2.624,2.624,0,0,0-2.628-2.611H42.135a2.624,2.624,0,0,0-2.628,2.611V6.344H74.228a.79.79,0,0,1,.557.23l19.935,19.8a.784.784,0,0,1,.231.554Z" transform="translate(718.973 6711)" fill="#002855"/><path d="M208.447,299.614l-9.007-7.483,2.671-3.214,6.078,5.049L217,285.16l2.953,2.953Z" transform="translate(600.05 6500.291)" fill="#0466c8"/><rect width="13.073" height="6.42" rx="3.21" transform="translate(755.905 6724.702)" fill="#fff"/><path d="M43.148,57.467H33.731a2.615,2.615,0,0,1-2.611-2.611V52.091a2.615,2.615,0,0,1,2.611-2.611h9.417a2.615,2.615,0,0,1,2.611,2.611v2.765A2.615,2.615,0,0,1,43.148,57.467Zm-9.417-6.42a1.044,1.044,0,0,0-1.044,1.044v2.765A1.044,1.044,0,0,0,33.731,55.9h9.417a1.044,1.044,0,0,0,1.044-1.044V52.091a1.044,1.044,0,0,0-1.044-1.044Z" transform="translate(724.005 6674.439)" fill="#023e7d"/><rect width="35.818" height="6.42" rx="3.21" transform="translate(755.906 6744.197)" fill="#fff"/><path d="M65.884,132.137H33.721a2.615,2.615,0,0,1-2.611-2.611v-2.765a2.615,2.615,0,0,1,2.611-2.611H65.884a2.615,2.615,0,0,1,2.611,2.611v2.765A2.615,2.615,0,0,1,65.884,132.137Zm-32.163-6.42a1.044,1.044,0,0,0-1.044,1.044v2.765a1.044,1.044,0,0,0,1.044,1.044H65.884a1.044,1.044,0,0,0,1.044-1.044v-2.765a1.044,1.044,0,0,0-1.044-1.044Z" transform="translate(724.012 6619.264)" fill="#023e7d"/><rect width="35.818" height="6.42" rx="3.21" transform="translate(755.906 6757.217)" fill="#fff"/><path d="M65.884,182.007H33.721A2.615,2.615,0,0,1,31.11,179.4v-2.765a2.615,2.615,0,0,1,2.611-2.611H65.884a2.615,2.615,0,0,1,2.611,2.611V179.4A2.615,2.615,0,0,1,65.884,182.007Zm-32.163-6.42a1.044,1.044,0,0,0-1.044,1.044V179.4a1.044,1.044,0,0,0,1.044,1.044H65.884a1.044,1.044,0,0,0,1.044-1.044v-2.765a1.044,1.044,0,0,0-1.044-1.044Z" transform="translate(724.012 6582.414)" fill="#023e7d"/><rect width="35.818" height="6.42" rx="3.21" transform="translate(755.906 6770.238)" fill="#fff"/><path d="M65.884,231.877H33.721a2.615,2.615,0,0,1-2.611-2.611V226.5a2.615,2.615,0,0,1,2.611-2.611H65.884a2.615,2.615,0,0,1,2.611,2.611v2.765A2.615,2.615,0,0,1,65.884,231.877Zm-32.163-6.42a1.044,1.044,0,0,0-1.044,1.044v2.765a1.044,1.044,0,0,0,1.044,1.044H65.884a1.044,1.044,0,0,0,1.044-1.044V226.5a1.044,1.044,0,0,0-1.044-1.044Z" transform="translate(724.012 6545.564)" fill="#023e7d"/><rect width="35.818" height="6.42" rx="3.21" transform="translate(755.906 6783.257)" fill="#fff"/><path d="M65.884,281.747H33.721a2.615,2.615,0,0,1-2.611-2.611v-2.765a2.615,2.615,0,0,1,2.611-2.611H65.884a2.615,2.615,0,0,1,2.611,2.611v2.765A2.615,2.615,0,0,1,65.884,281.747Zm-32.163-6.42a1.044,1.044,0,0,0-1.044,1.044v2.765a1.044,1.044,0,0,0,1.044,1.044H65.884a1.044,1.044,0,0,0,1.044-1.044v-2.765a1.044,1.044,0,0,0-1.044-1.044Z" transform="translate(724.012 6508.714)" fill="#023e7d"/><rect width="6.344" height="6.344" rx="3.172" transform="translate(798.59 6744.273)" fill="#fff"/><path d="M198.78,132.351h-2.689a2.615,2.615,0,0,1-2.611-2.611v-2.689a2.615,2.615,0,0,1,2.611-2.611h2.689a2.615,2.615,0,0,1,2.611,2.611v2.689A2.615,2.615,0,0,1,198.78,132.351Zm-2.689-6.344a1.044,1.044,0,0,0-1.044,1.044v2.689a1.044,1.044,0,0,0,1.044,1.044h2.689a1.044,1.044,0,0,0,1.044-1.044v-2.689a1.044,1.044,0,0,0-1.044-1.044Z" transform="translate(604.329 6619.049)" fill="#023e7d"/><rect width="6.344" height="6.344" rx="3.172" transform="translate(798.59 6757.241)" fill="#fff"/><path d="M198.78,182.021h-2.689a2.615,2.615,0,0,1-2.611-2.611v-2.689a2.615,2.615,0,0,1,2.611-2.611h2.689a2.615,2.615,0,0,1,2.611,2.611v2.689A2.615,2.615,0,0,1,198.78,182.021Zm-2.689-6.344a1.044,1.044,0,0,0-1.044,1.044v2.689a1.044,1.044,0,0,0,1.044,1.044h2.689a1.044,1.044,0,0,0,1.044-1.044v-2.689a1.044,1.044,0,0,0-1.044-1.044Z" transform="translate(604.329 6582.348)" fill="#023e7d"/></g><g transform="translate(1629 367)" fill="#fff" stroke="#707070" stroke-width="1" opacity="0"><rect width="132" height="132" stroke="none"/><rect x="0.5" y="0.5" width="131" height="131" fill="none"/></g></g></svg>