<svg xmlns="http://www.w3.org/2000/svg" width="160" height="132" viewBox="0 0 160 132"><g transform="translate(-4578 -2819)"><g transform="translate(3330 -3986)"><g transform="translate(1248 6842)"><g transform="translate(22.045 69.498)"><path d="M138.625,291.594a8.639,8.639,0,0,0-8.26-6.2h-29.3a8.639,8.639,0,0,0-8.26,6.2Z" transform="translate(-92.187 -284.777)" fill="#002855"/><path d="M136.738,290.319H90.913a.613.613,0,0,1-.588-.784,9.277,9.277,0,0,1,8.848-6.645h29.3a9.277,9.277,0,0,1,8.848,6.645.613.613,0,0,1-.588.784Zm-44.96-1.226h44.1a8.05,8.05,0,0,0-7.4-4.978h-29.3a8.05,8.05,0,0,0-7.4,4.978Z" transform="translate(-90.301 -282.89)" fill="#002855"/></g><g transform="translate(0 52.416)"><path d="M55.5,215.83v3.091A2.087,2.087,0,0,1,53.425,221H41.33a2.088,2.088,0,0,1-2.079-2.083V215.83H2.5v5.963a4.178,4.178,0,0,0,4.161,4.169H88.147a4.178,4.178,0,0,0,4.161-4.169V215.83h-36.8Z" transform="translate(-1.887 -215.217)" fill="#002855"/><path d="M86.259,224.688H4.773A4.782,4.782,0,0,1,0,219.906v-5.963a.612.612,0,0,1,.612-.613H37.361a.612.612,0,0,1,.612.613v3.091A1.47,1.47,0,0,0,39.44,218.5H51.535A1.47,1.47,0,0,0,53,217.034v-3.091a.612.612,0,0,1,.612-.613h36.8a.612.612,0,0,1,.612.613v5.963a4.782,4.782,0,0,1-4.773,4.782ZM1.223,214.556v5.351a3.557,3.557,0,0,0,3.55,3.557H86.261a3.557,3.557,0,0,0,3.55-3.557v-5.351H54.231v2.478a2.7,2.7,0,0,1-2.691,2.7H39.445a2.7,2.7,0,0,1-2.691-2.7v-2.478Z" transform="translate(0 -213.33)" fill="#002855"/></g><path d="M165.034,219.73H152.916a2.7,2.7,0,0,1-2.7-2.7v-3.091a.613.613,0,0,1,.613-.613h16.285a.613.613,0,0,1,.613.613v3.091A2.7,2.7,0,0,1,165.034,219.73Zm-13.589-5.174v2.478a1.472,1.472,0,0,0,1.471,1.471h12.118a1.472,1.472,0,0,0,1.471-1.471v-2.478Z" transform="translate(-113.488 -160.923)" fill="#002855"/><path d="M160,262.8H137.722a.613.613,0,0,1-.547-.89L140.661,255a.614.614,0,0,1,.547-.338h15.3a.61.61,0,0,1,.547.338l3.485,6.917a.613.613,0,0,1-.547.89Zm-21.283-1.226H159l-2.868-5.691H141.585Z" transform="translate(-103.59 -192.081)" fill="#002855"/><path d="M269.651,150.663H251.768a1.839,1.839,0,0,1-1.838-1.838v-3.287a1.839,1.839,0,0,1,1.838-1.838h17.883a1.839,1.839,0,0,1,1.838,1.838v3.287A1.839,1.839,0,0,1,269.651,150.663Zm-17.883-5.738a.613.613,0,0,0-.613.613v3.287a.613.613,0,0,0,.613.613h17.883a.613.613,0,0,0,.613-.613v-3.287a.613.613,0,0,0-.613-.613Z" transform="translate(-188.846 -108.398)" fill="#002855"/><path d="M90.42,53.674H.612A.613.613,0,0,1,0,53.059V4.8A4.789,4.789,0,0,1,4.773,0H86.261a4.789,4.789,0,0,1,4.773,4.8V53.062a.613.613,0,0,1-.612.615Zm-89.2-1.229H89.809V4.8a3.563,3.563,0,0,0-3.55-3.567H4.773A3.563,3.563,0,0,0,1.223,4.8V52.447Z" fill="#002855"/><path d="M89.76,40.21l13.072-6.9,12.856,6.9L102.724,49.8Z" transform="translate(-67.818 -25.055)" fill="#678dce"/><path d="M100.832,48.519a.615.615,0,0,1-.365-.12L87.5,38.813a.616.616,0,0,1-.248-.539.609.609,0,0,1,.326-.5l13.072-6.9a.614.614,0,0,1,.576,0l12.853,6.9a.612.612,0,0,1,.074,1.032L101.192,48.4a.6.6,0,0,1-.365.12ZM89.015,38.406l11.817,8.738L112.653,38.4,100.94,32.115,89.018,38.406Z" transform="translate(-65.926 -23.256)" fill="#002855"/><path d="M88.862,61.46,88.57,76.639l13.255,7.118V71.046Z" transform="translate(-66.91 -46.265)" fill="#023e7d"/><path d="M99.946,82.479a.6.6,0,0,1-.289-.074L86.4,75.288a.614.614,0,0,1-.324-.551l.292-15.179a.614.614,0,0,1,.978-.483l12.964,9.586a.611.611,0,0,1,.248.493V81.861a.615.615,0,0,1-.3.527.6.6,0,0,1-.314.086ZM87.31,74.386l12.022,6.456V69.466l-11.76-8.7-.26,13.618Z" transform="translate(-65.03 -44.375)" fill="#002855"/><path d="M155.614,61.46V76.929L142.65,83.757V71.046Z" transform="translate(-107.764 -46.268)" fill="#0466c8"/><path d="M140.763,82.49a.6.6,0,0,1-.316-.088.611.611,0,0,1-.3-.525V69.169a.618.618,0,0,1,.248-.493l12.964-9.586a.612.612,0,0,1,.976.493V75.051a.61.61,0,0,1-.326.542l-12.964,6.826a.628.628,0,0,1-.287.071Zm.613-13.013V80.863l11.738-6.182V60.8Z" transform="translate(-105.877 -44.387)" fill="#002855"/><path d="M40.188,57.25l-1.672,1.716V32.9l1.677,1.677a.614.614,0,1,0,.868-.868l-2.723-2.723a.613.613,0,0,0-.434-.179h0a.632.632,0,0,0-.071.007.167.167,0,0,0-.049,0s-.007,0-.012,0a.587.587,0,0,0-.208.091.214.214,0,0,0-.025.02.5.5,0,0,0-.066.056h0l-2.76,2.833a.613.613,0,1,0,.877.855L37.3,32.93V59.066l-1.713-1.713a.614.614,0,0,0-.868.868l2.723,2.723a.61.61,0,0,0,.434.179h.037a.61.61,0,0,0,.537-.324l2.625-2.694a.614.614,0,1,0-.88-.855Z" transform="translate(-26.07 -23.258)" fill="#002855"/><path d="M112.076,163.623s.007-.022.01-.034a.442.442,0,0,0,.025-.081.61.61,0,0,0,.007-.066c0-.017,0-.034,0-.054h0c0-.027,0-.051-.007-.078a.115.115,0,0,0,0-.042.087.087,0,0,0-.01-.027.6.6,0,0,0-.027-.088s0-.01-.007-.012a.536.536,0,0,0-.049-.091.2.2,0,0,0-.029-.034.516.516,0,0,0-.047-.056,0,0,0,0,0,0,0L109.1,160.2a.614.614,0,0,0-.855.88L110,162.785H83.866l1.713-1.713a.614.614,0,1,0-.868-.868l-2.723,2.723a.61.61,0,0,0-.179.436v.032a.61.61,0,0,0,.324.537l2.694,2.625a.618.618,0,0,0,.426.174.625.625,0,0,0,.439-.184.615.615,0,0,0-.012-.868l-1.716-1.672h26.062l-1.677,1.677a.614.614,0,0,0,.868.868l2.723-2.723a.552.552,0,0,0,.076-.093c0-.007.007-.017.012-.025a.54.54,0,0,0,.044-.083Z" transform="translate(-61.815 -120.711)" fill="#002855"/><path d="M270.877,46.856H250.543a.613.613,0,1,1,0-1.226h20.334a.613.613,0,1,1,0,1.226Z" transform="translate(-188.846 -34.445)" fill="#002855"/><path d="M264.913,72.636h-14.38a.613.613,0,0,1,0-1.226h14.38a.613.613,0,0,1,0,1.226Z" transform="translate(-188.805 -53.87)" fill="#002855"/><path d="M257.732,123.6h-7.189a.613.613,0,0,1,0-1.226h7.189a.613.613,0,1,1,0,1.226Z" transform="translate(-188.8 -92.313)" fill="#002855"/><path d="M270.877,98.416H250.543a.613.613,0,0,1,0-1.226h20.334a.613.613,0,1,1,0,1.226Z" transform="translate(-188.846 -73.319)" fill="#002855"/></g><g transform="translate(1339.325 6864.922)"><path d="M135.693,67.078H103.106a.848.848,0,1,1,0-1.695h31.717V14.807l-13.3-13.112H85.59v8.637a.87.87,0,0,1-1.74,0V.847A.858.858,0,0,1,84.72,0h37.17a.877.877,0,0,1,.619.252l13.8,13.613a.838.838,0,0,1,.251.595v51.77A.858.858,0,0,1,135.693,67.078Z" transform="translate(-67.888)" fill="#002855"/><path d="M289.88,38.388H276.117a.855.855,0,0,1-.857-.857V29.3a.857.857,0,1,1,1.713,0v7.379H289.88a.857.857,0,1,1,0,1.713Z" transform="translate(-222.062 -23.026)" fill="#002855"/><path d="M162.45,49.413H143.667a.857.857,0,1,1,0-1.713H162.45a.857.857,0,1,1,0,1.713Z" transform="translate(-115.166 -38.62)" fill="#002855"/><path d="M157.542,73.413H143.667a.857.857,0,1,1,0-1.713h13.876a.857.857,0,0,1,0,1.713Z" transform="translate(-115.209 -58.204)" fill="#002855"/><path d="M209.928,158.048h-.021a.852.852,0,0,1-.634-.3l-5.81-6.882a.857.857,0,0,1,1.31-1.1l5.186,6.143,12.2-13.112a.857.857,0,0,1,1.254,1.167l-12.861,13.819a.853.853,0,0,1-.626.272Z" transform="translate(-163.769 -115.771)" fill="#002855"/><g transform="translate(6.871 13.483)"><path d="M51.761,106.291s-.451-7.9,2.256-10.718c2.128-2.218,5.077-6.2,4.85-9.646a9.137,9.137,0,0,0-18.275,0c-.227,3.44,3.059,7.148,4.85,9.646,3.158,4.4,1.862,10.718,1.862,10.718" transform="translate(-39.727 -75.933)" fill="#002855"/><path d="M43.673,103.5a.9.9,0,0,1-.173-.017.857.857,0,0,1-.666-1.011c.011-.059,1.178-6.012-1.717-10.046-.263-.366-.56-.76-.874-1.178-1.829-2.431-4.335-5.759-4.139-8.995a9.994,9.994,0,0,1,19.988,0c.265,4.331-3.826,8.951-5.09,10.266-2.008,2.092-2.138,7.982-2.02,10.074a.857.857,0,1,1-1.711.1c-.019-.337-.438-8.3,2.494-11.359,2.355-2.454,4.8-6.1,4.614-9v-.055a8.281,8.281,0,1,0-16.562,0v.055c-.171,2.61,2.121,5.656,3.8,7.881.32.426.624.828.9,1.209,3.339,4.651,2.062,11.115,2,11.39a.858.858,0,0,1-.838.685Z" transform="translate(-36.093 -72.29)" fill="#002855"/></g><path d="M40.231,330.505H12.707a.855.855,0,0,1-.857-.857v-4.342a.856.856,0,0,1,.857-.857H40.231a.855.855,0,0,1,.857.857v4.342A.855.855,0,0,1,40.231,330.505Zm-26.668-1.713H39.375v-2.629H13.563v2.629Z" transform="translate(-9.594 -263.428)" fill="#002855"/><g transform="translate(0 49.458)"><path d="M36.594,279.763v-4.5a7.085,7.085,0,0,0-7.064-7.064H11.564A7.085,7.085,0,0,0,4.5,275.264v4.5Z" transform="translate(-3.643 -267.343)" fill="#002855"/><path d="M32.95,276.976H.857A.855.855,0,0,1,0,276.119v-4.5A7.931,7.931,0,0,1,7.921,263.7H25.886a7.931,7.931,0,0,1,7.921,7.921v4.5a.855.855,0,0,1-.857.857ZM1.713,275.263h30.38v-3.642a6.215,6.215,0,0,0-6.208-6.208H7.921a6.215,6.215,0,0,0-6.208,6.208Z" transform="translate(0 -263.7)" fill="#002855"/></g><path d="M69.471,235.91H60.107a.855.855,0,0,1-.857-.857v-3.87a3.928,3.928,0,0,1,3.923-3.923H66.4a3.928,3.928,0,0,1,3.923,3.923v3.87a.855.855,0,0,1-.857.857ZM60.963,234.2h7.651v-3.013a2.213,2.213,0,0,0-2.21-2.21H63.175a2.213,2.213,0,0,0-2.21,2.21V234.2Z" transform="translate(-47.812 -184.54)" fill="#002855"/><path d="M181.313,158.185a13.463,13.463,0,1,1,7.1-24.9.857.857,0,0,1-.906,1.454,11.751,11.751,0,1,0,5.553,9.985,11.848,11.848,0,0,0-.265-2.492.857.857,0,1,1,1.675-.362,13.476,13.476,0,0,1-13.16,16.316Z" transform="translate(-135.099 -106.726)" fill="#002855"/></g></g><g transform="translate(4578 2819)" fill="#fff" stroke="#707070" stroke-width="1" opacity="0"><rect width="160" height="132" stroke="none"/><rect x="0.5" y="0.5" width="159" height="131" fill="none"/></g></g></svg>