<svg xmlns="http://www.w3.org/2000/svg" width="132" height="132" viewBox="0 0 132 132"><g transform="translate(-1892 -367)"><path d="M103.968,38.257,95.3.871a1.133,1.133,0,0,0-.715-.809,1.117,1.117,0,0,0-1.063.17L76.377,13.553a1.137,1.137,0,0,0-.269,1.49l.2.32A12.959,12.959,0,0,1,70.446,17.4c-3.1.192-9.309-2.268-11.458-3.24a6.578,6.578,0,0,0-5.045.023.591.591,0,0,0-.059.031l-2.87,1.617a5.183,5.183,0,0,0-4.433-1.151c-5.033,1.309-14.519,1.493-18.644,1.507l.2-.325a1.135,1.135,0,0,0-.25-1.479L10.618.374A1.118,1.118,0,0,0,8.823,1L.033,38.822a1.13,1.13,0,0,0,.511,1.224l8.229,5.027a1.116,1.116,0,0,0,1.535-.37l1.2-1.945,3,2.556a5.65,5.65,0,0,0,.342,6.953,5.507,5.507,0,0,0,3.821,1.9c.126.008.253.011.379.011a5.5,5.5,0,0,0,.612-.037,5.706,5.706,0,0,0-.07.588,5.584,5.584,0,0,0,5.555,5.98,5.534,5.534,0,0,0,1.737-.286,5.607,5.607,0,0,0,1.369,3.845,5.537,5.537,0,0,0,7.64.7,5.567,5.567,0,0,0,5.55,5.186,5.53,5.53,0,0,0,3.667-1.388l3.162-2.794,6.784,4.168A5.052,5.052,0,0,0,57.826,71c.213,0,.432-.014.662-.037a5.89,5.89,0,0,0,3.689-1.835,5.8,5.8,0,0,0,1.369-3.566,4.4,4.4,0,0,0,2.371.721c.137,0,.278-.006.421-.02a6.4,6.4,0,0,0,3.984-2.013,5.7,5.7,0,0,0,1.22-4.074,6.318,6.318,0,0,0,1.389.158,5.623,5.623,0,0,0,4.582-2.276,6.224,6.224,0,0,0,1.2-4.6,5.277,5.277,0,0,0,1.018.1,4.826,4.826,0,0,0,3.493-1.544,5.429,5.429,0,0,0,1.422-5.05l6.778-7.021,2.461,4a1.118,1.118,0,0,0,.954.534,1.1,1.1,0,0,0,.575-.161l8.044-4.838a1.135,1.135,0,0,0,.519-1.227ZM18.816,51.908a3.286,3.286,0,0,1-2.281-1.131,3.381,3.381,0,0,1,.311-4.728l4.565-4.029a3.307,3.307,0,0,1,4.691.314,3.37,3.37,0,0,1-.311,4.728l-4.565,4.029A3.29,3.29,0,0,1,18.816,51.908Zm3.821,5.4a3.381,3.381,0,0,1,.311-4.728L30.4,46a3.318,3.318,0,0,1,4.691.314,3.384,3.384,0,0,1-.309,4.728l-6.013,5.307h0l-1.436,1.27a3.307,3.307,0,0,1-4.691-.314Zm7.3,5.474a3.372,3.372,0,0,1,.309-4.728l6.01-5.3,0,0,.558-.495a3.309,3.309,0,0,1,4.691.314,3.381,3.381,0,0,1-.311,4.728l-3.44,3.037h0l-3.131,2.765a3.31,3.31,0,0,1-4.691-.314ZM43.624,67.07a3.31,3.31,0,0,1-4.691-.314,3.375,3.375,0,0,1,.309-4.728l3.443-3.037h0l.342-.3a3.276,3.276,0,0,1,2.183-.826,2.037,2.037,0,0,1,.227.008A3.286,3.286,0,0,1,47.717,59a3.369,3.369,0,0,1-.311,4.728L43.624,67.07ZM81.629,50.418c-.415.418-1.585,1.595-3.981.232,0,0-.008-.006-.011-.008a9.36,9.36,0,0,1-.931-.616c-.9-.681-1.832-1.349-2.733-1.993-.452-.325-.9-.648-1.355-.975L59.653,37.638a1.116,1.116,0,0,0-1.566.254,1.136,1.136,0,0,0,.253,1.578L71.3,48.888l1.364.984c.889.636,1.807,1.3,2.688,1.962.272.206.541.385.811.554a4.567,4.567,0,0,1-.435,4.278,3.523,3.523,0,0,1-4.063,1.2L55.018,45.733a1.116,1.116,0,0,0-1.566.254,1.136,1.136,0,0,0,.253,1.578L69.167,58.83c.182,1.151.261,3.1-.452,3.831a4.28,4.28,0,0,1-2.587,1.349c-.794.074-1.243-.223-2.191-.9l-13.79-9.82a1.112,1.112,0,0,0-1.563.271,1.139,1.139,0,0,0,.269,1.578l12.409,8.836c.118.95.123,2.675-.738,3.605a3.656,3.656,0,0,1-2.292,1.128,2.806,2.806,0,0,1-2.02-.5L49.85,64.3A5.65,5.65,0,0,0,49.4,57.5a5.507,5.507,0,0,0-3.821-1.9,5.7,5.7,0,0,0-1.077.031c.025-.167.048-.336.059-.506a5.575,5.575,0,0,0-6.464-5.9c.014-.116.031-.229.039-.348a5.6,5.6,0,0,0-1.364-4.069,5.541,5.541,0,0,0-7.631-.707,5.606,5.606,0,0,0-1.355-3.277,5.544,5.544,0,0,0-7.859-.523l-3.838,3.387-3.384-2.887L26.538,18.439c.261,0,.592,0,.988,0,3.964,0,14.126-.15,19.642-1.589l.062-.017a2.546,2.546,0,0,1,1.537.249l-8.083,4.552a2.939,2.939,0,0,0-1.742,1.711,3.218,3.218,0,0,0,.673,2.938c1.885,2.63,6.344,2.9,6.84,2.918.309.014,7.191.32,11.559-2.649L81.666,46a3.163,3.163,0,0,1-.036,4.405ZM83.6,44.8a4.931,4.931,0,0,0-.382-.427,1.03,1.03,0,0,0-.084-.076L58.752,24.255a1.114,1.114,0,0,0-1.425.006c-3.6,3.006-10.692,2.7-10.768,2.695-1.066-.048-4.063-.5-5.126-1.982-.354-.495-.4-.792-.368-.888a.765.765,0,0,1,.41-.32,1.063,1.063,0,0,0,.219-.093l13.248-7.459a4.385,4.385,0,0,1,3.14.028c.334.15,8.207,3.693,12.5,3.427a15.175,15.175,0,0,0,6.9-2.375L90.2,37.971l-6.6,6.837Z" transform="translate(1905.998 417.003)" fill="#002855"/><g transform="translate(1892 367)" fill="#fff" stroke="#707070" stroke-width="1" opacity="0"><rect width="132" height="132" stroke="none"/><rect x="0.5" y="0.5" width="131" height="131" fill="none"/></g></g></svg>