<svg xmlns="http://www.w3.org/2000/svg" width="132" height="132" viewBox="0 0 132 132"><g transform="translate(-4329 -4128)"><g transform="translate(3075.999 -2888.5)"><g transform="translate(1266.001 7108.632)"><rect width="104.367" height="3.201" rx="1.601" transform="translate(0.815 0.815)" fill="#002855"/><path d="M103.57,236.9H2.427a2.416,2.416,0,1,1,0-4.832H103.573a2.416,2.416,0,1,1,0,4.832ZM2.427,233.7a.785.785,0,1,0,0,1.571H103.573a.785.785,0,1,0,0-1.571Z" transform="translate(0 -232.07)" fill="#002855"/></g><circle cx="6.28" cy="6.28" r="6.28" transform="translate(1344.613 7045.815)" fill="#023e7d"/><path d="M291.516,14.191a7.1,7.1,0,1,1,7.1-7.1A7.1,7.1,0,0,1,291.516,14.191Zm0-12.561A5.465,5.465,0,1,0,296.981,7.1,5.471,5.471,0,0,0,291.516,1.631Z" transform="translate(1059.378 7045)" fill="#002855"/><path d="M278.729,71.571a2.612,2.612,0,1,1-5.223,0V32.535s-.082-.443-.484-.019-.563,8.979-.563,8.979a2.087,2.087,0,0,1-2.114,1.489,2.619,2.619,0,0,1-2.394-2.345,22.6,22.6,0,0,1,.563-8.264A12.136,12.136,0,0,1,273,25.227s4.166-3.362,11.012-.4c1.609-2.826,3.123-5.707,4.761-8.517,1.155-1.978,2.644-5.123,5.476-3.47,2.174,1.269-.424,5.193-.424,5.193l-7.851,13.316V71.574a2.612,2.612,0,1,1-5.223,0v-19.1a1.011,1.011,0,0,0-2.022,0v19.1Z" transform="translate(1071.51 7035.99)" fill="#023e7d"/><path d="M281.168,72.808a3.432,3.432,0,0,1-3.427-3.427v-19.1a.2.2,0,0,0-.391,0v19.1a3.427,3.427,0,0,1-6.854,0V40.56a2.945,2.945,0,0,1-2.345,1.046,3.428,3.428,0,0,1-3.2-3.014,23.41,23.41,0,0,1,.568-8.582,12.935,12.935,0,0,1,4.8-7.631c.416-.323,4.541-3.31,11.14-.772.571-1.014,1.136-2.044,1.688-3.044.88-1.6,1.788-3.25,2.726-4.859.084-.147.171-.3.261-.454.845-1.478,1.9-3.321,3.612-3.78a3.492,3.492,0,0,1,2.718.47,2.469,2.469,0,0,1,1.19,1.614c.443,1.9-1.1,4.356-1.332,4.715l-7.729,13.107v40a3.432,3.432,0,0,1-3.427,3.427ZM277.545,48.45a1.828,1.828,0,0,1,1.826,1.826v19.1a1.8,1.8,0,1,0,3.593,0V28.934l7.987-13.545c.549-.834,1.34-2.514,1.117-3.465a.846.846,0,0,0-.424-.576,1.917,1.917,0,0,0-1.473-.3c-1.057.283-1.924,1.8-2.617,3.014-.092.16-.182.318-.269.467-.927,1.59-1.832,3.234-2.707,4.824-.666,1.209-1.353,2.462-2.052,3.685l-.361.636-.671-.291c-6.27-2.709-10.023.168-10.18.291l-.054.041a11.46,11.46,0,0,0-4.147,6.642,21.176,21.176,0,0,0-.557,7.946c.147.807.707,1.674,1.593,1.674a1.276,1.276,0,0,0,1.3-.8c.168-8.764.554-9.172.785-9.414a1.121,1.121,0,0,1,1.163-.4,1.048,1.048,0,0,1,.712.832l.014.147V69.378a1.8,1.8,0,1,0,3.593,0v-19.1a1.828,1.828,0,0,1,1.826-1.826Z" transform="translate(1073.705 7038.18)" fill="#002855"/><circle cx="6.28" cy="6.28" r="6.28" transform="translate(1318.625 7045.815)" fill="#023e7d"/><path d="M196.7,14.191a7.1,7.1,0,1,1,7.1-7.1A7.1,7.1,0,0,1,196.7,14.191Zm0-12.561A5.465,5.465,0,1,0,202.161,7.1,5.471,5.471,0,0,0,196.7,1.631Z" transform="translate(1128.21 7045)" fill="#002855"/><path d="M183.909,71.571a2.612,2.612,0,1,1-5.223,0V32.535s-.082-.443-.484-.019-.563,8.979-.563,8.979a2.087,2.087,0,0,1-2.114,1.489,2.619,2.619,0,0,1-2.394-2.345,22.6,22.6,0,0,1,.563-8.264,12.136,12.136,0,0,1,4.49-7.147s4.166-3.362,11.012-.4c1.609-2.826,3.123-5.707,4.761-8.517,1.155-1.978,2.644-5.123,5.476-3.47,2.174,1.269-.424,5.193-.424,5.193l-7.851,13.316V71.574a2.612,2.612,0,0,1-5.223,0v-19.1a1.011,1.011,0,1,0-2.022,0v19.1Z" transform="translate(1140.361 7035.99)" fill="#023e7d"/><path d="M186.357,72.808a3.432,3.432,0,0,1-3.427-3.427v-19.1a.2.2,0,0,0-.391,0v19.1a3.427,3.427,0,0,1-6.854,0V40.56a2.945,2.945,0,0,1-2.345,1.046,3.428,3.428,0,0,1-3.2-3.014,23.413,23.413,0,0,1,.568-8.582,12.935,12.935,0,0,1,4.8-7.631c.416-.323,4.541-3.313,11.14-.772.571-1.014,1.136-2.041,1.685-3.041.881-1.6,1.788-3.253,2.729-4.862.084-.147.171-.3.261-.454.845-1.478,1.9-3.321,3.612-3.78a3.492,3.492,0,0,1,2.718.47,2.469,2.469,0,0,1,1.19,1.614c.443,1.9-1.1,4.356-1.332,4.715l-7.729,13.107v40a3.432,3.432,0,0,1-3.427,3.427ZM182.735,48.45a1.829,1.829,0,0,1,1.826,1.826v19.1a1.8,1.8,0,1,0,3.593,0V28.934l7.987-13.545c.549-.834,1.34-2.514,1.117-3.465a.846.846,0,0,0-.424-.576,1.917,1.917,0,0,0-1.473-.3c-1.057.283-1.924,1.8-2.617,3.014-.092.16-.182.318-.269.467-.927,1.59-1.832,3.234-2.707,4.824-.666,1.209-1.353,2.459-2.049,3.682l-.361.636-.671-.291c-6.27-2.709-10.023.168-10.18.291l-.054.041A11.459,11.459,0,0,0,172.3,30.35a21.244,21.244,0,0,0-.56,7.946c.147.807.707,1.674,1.593,1.674a1.278,1.278,0,0,0,1.3-.807c.168-8.759.554-9.167.785-9.408a1.122,1.122,0,0,1,1.163-.4,1.048,1.048,0,0,1,.712.832l.014.147V69.375a1.8,1.8,0,1,0,3.593,0V50.27a1.828,1.828,0,0,1,1.826-1.826Z" transform="translate(1142.55 7038.18)" fill="#002855"/><circle cx="8.18" cy="8.18" r="8.18" transform="translate(1280.258 7052.096)" fill="#023e7d"/><path d="M58.455,41.1a9,9,0,1,1,9-9A9.006,9.006,0,0,1,58.455,41.1Zm0-16.36a7.365,7.365,0,1,0,7.365,7.365A7.374,7.374,0,0,0,58.455,24.741Z" transform="translate(1229.983 7028.171)" fill="#002855"/><path d="M28.5,121.641a3.4,3.4,0,1,0,6.8,0V64.818s.106-.582.63-.027.734,11.806.734,11.806a2.728,2.728,0,0,0,2.753,1.959,3.431,3.431,0,0,0,3.12-3.084c.614-3.419-.016-7.523-.734-10.868a15.961,15.961,0,0,0-5.846-9.4s-5.427-4.42-14.341-.53c-2.1-3.718-4.066-7.5-6.2-11.2-1.5-2.6-3.446-6.736-7.131-4.566-2.832,1.668.552,6.829.552,6.829L19.07,63.251v58.385a3.4,3.4,0,1,0,6.8,0V91.026a1.318,1.318,0,1,1,2.636,0v30.61Z" transform="translate(1260.785 7017.107)" fill="#023e7d"/><path d="M29.716,123.716a4.242,4.242,0,0,1-4.218-4.258v-30.6a.5.5,0,1,0-1.006,0v30.6a4.218,4.218,0,1,1-8.436,0V61.309l-10.1-17.3c-.285-.439-2.264-3.6-1.7-6.011a3.012,3.012,0,0,1,1.435-1.964,4.28,4.28,0,0,1,3.351-.593c2.133.579,3.476,2.949,4.555,4.853.117.206.231.406.342.6,1.22,2.112,2.405,4.285,3.549,6.386.75,1.377,1.522,2.793,2.3,4.186,8.631-3.448,13.985.524,14.471.905a16.719,16.719,0,0,1,6.161,9.884c.641,2.993,1.419,7.41.739,11.187-.326,1.811-1.69,3.758-3.922,3.758a3.565,3.565,0,0,1-3.3-1.945v44.2a4.242,4.242,0,0,1-4.218,4.258ZM25,86.7a2.145,2.145,0,0,1,2.133,2.154v30.6a2.587,2.587,0,1,0,5.174,0V62.571l.014-.074a1.132,1.132,0,0,1,.756-.9,1.2,1.2,0,0,1,1.266.453c.239.255.739.785.957,12.246a1.91,1.91,0,0,0,1.94,1.262c1.3,0,2.109-1.248,2.318-2.406.47-2.62.231-6.068-.728-10.545a15.309,15.309,0,0,0-5.506-8.888l-.054-.041c-.207-.165-5.191-4.044-13.507-.414l-.671.294-.361-.642c-.9-1.608-1.8-3.251-2.669-4.839-1.141-2.093-2.318-4.258-3.53-6.351-.114-.2-.231-.4-.348-.612-.927-1.64-2.082-3.679-3.56-4.079a2.7,2.7,0,0,0-2.106.425,1.355,1.355,0,0,0-.669.916c-.348,1.5.957,3.937,1.489,4.746l.022.036,10.338,17.7v58.6a2.587,2.587,0,1,0,5.174,0v-30.6A2.145,2.145,0,0,1,25,86.7Zm8.047-23.683Z" transform="translate(1262.975 7019.284)" fill="#002855"/></g><g transform="translate(4329 4128)" fill="#fff" stroke="#707070" stroke-width="1" opacity="0"><rect width="132" height="132" stroke="none"/><rect x="0.5" y="0.5" width="131" height="131" fill="none"/></g></g></svg>