<svg xmlns="http://www.w3.org/2000/svg" width="132" height="132" viewBox="0 0 132 132"><g transform="translate(-4329 -3288)"><g transform="translate(4333.498 3288)"><g transform="translate(57.348)"><path d="M52.541,76.377H0V10H14.439v5.159h24V10H52.546V76.377ZM1.482,74.895H51.059V11.482H39.911v5.159H12.956V11.482H1.482Z" transform="translate(0 -5.059)" fill="#002855"/><path d="M53.18,6.424H26.22V0H53.18ZM27.7,4.941h24V1.482h-24Z" transform="translate(-13.264)" fill="#002855"/><rect width="25.478" height="5.159" transform="translate(13.698 5.683)" fill="#023e7d"/><path d="M53.18,16.641H26.22V10H53.18ZM27.7,15.159h24V11.482h-24Z" transform="translate(-13.263 -5.059)" fill="#002855"/><path d="M25.47,41.54H16.62V32.69h8.85ZM17.855,40.3h6.379V33.925H17.855Z" transform="translate(-8.408 -16.537)" fill="#002855"/><path d="M22.211,39.647,19.36,36.8l.87-.875L22.211,37.9,26.6,33.51l.875.87Z" transform="translate(-9.793 -16.952)" fill="#023e7d"/><path d="M62.7,41.632H41.111a.741.741,0,0,1,0-1.482H62.7a.741.741,0,1,1,0,1.482Z" transform="translate(-20.422 -20.311)" fill="#002855"/><path d="M25.47,68.36H16.62V59.51h8.85Zm-7.615-1.235h6.379V60.745H17.855Z" transform="translate(-8.408 -30.104)" fill="#002855"/><path d="M22.211,66.462,19.36,63.611l.87-.875,1.981,1.977L26.6,60.32l.875.875Z" transform="translate(-9.793 -30.513)" fill="#023e7d"/><path d="M62.7,68.442H41.111a.741.741,0,1,1,0-1.482H62.7a.741.741,0,1,1,0,1.482Z" transform="translate(-20.422 -33.872)" fill="#002855"/><path d="M25.47,95.17H16.62V86.32h8.85Zm-7.615-1.235h6.379V87.555H17.855Z" transform="translate(-8.408 -43.666)" fill="#002855"/><path d="M22.211,93.272,19.36,90.421l.87-.875,1.981,1.981,4.393-4.4.875.875Z" transform="translate(-9.793 -44.076)" fill="#023e7d"/><path d="M59.6,95.262H41.111a.741.741,0,0,1,0-1.482H59.6a.741.741,0,0,1,0,1.482Z" transform="translate(-20.422 -47.44)" fill="#002855"/><path d="M25.47,121.99H16.62v-8.85h8.85Zm-7.615-1.235h6.379v-6.379H17.855Z" transform="translate(-8.408 -57.234)" fill="#002855"/><path d="M22.211,120.092l-2.851-2.851.87-.875,1.981,1.977L26.6,113.95l.875.875Z" transform="translate(-9.793 -57.644)" fill="#023e7d"/><path d="M62.7,122.072H41.111a.741.741,0,0,1,0-1.482H62.7a.741.741,0,1,1,0,1.482Z" transform="translate(-20.422 -61.001)" fill="#002855"/><rect width="10.352" height="17.626" transform="translate(54.706 46.424)" fill="#023e7d"/><path d="M120.45,111.572H110.1a.6.6,0,0,1-.6-.6V93.348a.6.6,0,0,1,.6-.6H120.45a.6.6,0,0,1,.6.6v17.626A.6.6,0,0,1,120.45,111.572Zm-9.754-1.2h9.151V93.946H110.7Z" transform="translate(-55.392 -46.92)" fill="#002855"/><path d="M84.59,80.976s-1.893-.3-3.785-3.192l-4.319-6.745a1.89,1.89,0,0,1-.415-1.418V63.706s.356-1.774-2.189-.889c0,0-5.44,1.952-3.548,10.886,0,0,.3,1.24-.83.83,0,0-4.675-1.655-7.036-.534,0,0-4.556,1.655-2.486,5.737,0,0,.608.534-.059.845a3.228,3.228,0,0,0,.445,4.749s.889.4.133.978c0,0-.756,3.1,2.174,3.9,0,0-1.552,3.148,1.24,4.615H79.308s.623.222,1.329-.534a7.434,7.434,0,0,1,3.948-1.374V80.986Z" transform="translate(-29.885 -31.653)" fill="#fff"/><path d="M78.933,94.829a1.558,1.558,0,0,1-.306-.03H63.3a.589.589,0,0,1-.277-.069,3.774,3.774,0,0,1-1.749-4.788,3.749,3.749,0,0,1-1.972-4.4.608.608,0,0,1,.178-.3.853.853,0,0,1-.138-.094,4.128,4.128,0,0,1-1.477-2.906,4.038,4.038,0,0,1,1.008-2.688.319.319,0,0,1,.044-.04c-.03-.04-.059-.079-.084-.119a4.388,4.388,0,0,1-.341-3.7,5.729,5.729,0,0,1,3.123-2.866c2.565-1.2,7.274.45,7.471.519a.461.461,0,0,0,.064.02.715.715,0,0,0-.02-.148c-1.023-4.833.064-7.709,1.156-9.27a6.41,6.41,0,0,1,2.772-2.313c1.166-.405,1.986-.38,2.52.084a1.584,1.584,0,0,1,.464,1.413v5.9a1.33,1.33,0,0,0,.252.969.393.393,0,0,1,.069.089l4.319,6.745c1.695,2.594,3.365,2.925,3.38,2.925a.6.6,0,0,1,.5.593V92.294a.6.6,0,0,1-.588.6,6.814,6.814,0,0,0-3.563,1.23,2.083,2.083,0,0,1-1.492.712ZM78.9,93.638Zm-.015,0c.064.01.341.015.707-.371a.427.427,0,0,1,.069-.064,8.125,8.125,0,0,1,3.716-1.463V80.805a7.984,7.984,0,0,1-3.686-3.311L75.4,70.789a2.527,2.527,0,0,1-.534-1.8V63.1a.478.478,0,0,1,0-.119.455.455,0,0,0-.069-.346c-.03-.025-.3-.217-1.329.143-.193.074-4.912,1.927-3.162,10.194a1.479,1.479,0,0,1-.316,1.384,1.2,1.2,0,0,1-1.3.128c-1.23-.435-4.823-1.389-6.577-.553a.177.177,0,0,1-.054.02,4.593,4.593,0,0,0-2.451,2.2,3.218,3.218,0,0,0,.252,2.624,1.2,1.2,0,0,1,.351.949,1,1,0,0,1-.524.726A2.6,2.6,0,0,0,60.1,84.22a1.262,1.262,0,0,1,.682.9,1.048,1.048,0,0,1-.351.885,2.478,2.478,0,0,0,1.784,3.009.608.608,0,0,1,.39.331.592.592,0,0,1-.01.509c-.128.262-1.171,2.574.86,3.75H78.691a.387.387,0,0,1,.188.03ZM59.1,79.4Z" transform="translate(-29.272 -31.036)" fill="#002855"/></g><g transform="translate(0 49.364)"><rect width="76.335" height="56.488" transform="translate(3.913 4.096)" fill="#fff"/><path d="M76.95,64.332h5.107a3.684,3.684,0,0,0,3.674-3.674V6.674A3.684,3.684,0,0,0,82.057,3H6.674A3.684,3.684,0,0,0,3,6.674V60.661a3.684,3.684,0,0,0,3.674,3.674h55.3l-3.889-5.422H13.452a5.228,5.228,0,0,0-5.227-5.227V13.552a5.228,5.228,0,0,0,5.227-5.227h61.63a5.228,5.228,0,0,0,5.227,5.227V50.166L76.952,64.335Z" transform="translate(-2.334 -2.335)" fill="#023e7d"/><path d="M268.228,197.78a2.678,2.678,0,0,1,0,5.356,2.677,2.677,0,0,1-2.676,4.637,2.677,2.677,0,0,1-4.637,2.676,2.678,2.678,0,0,1-5.356,0,2.677,2.677,0,0,1-4.637-2.676,2.677,2.677,0,0,1-2.676-4.637,2.678,2.678,0,0,1,0-5.356,2.677,2.677,0,0,1,2.676-4.637,2.677,2.677,0,0,1,4.637-2.676,2.678,2.678,0,0,1,5.356,0,2.677,2.677,0,0,1,4.637,2.676,2.677,2.677,0,0,1,2.676,4.637Z" transform="translate(-191.11 -146.148)" fill="#fff"/><path d="M255.9,211.418a3.356,3.356,0,0,1-3.04-1.959,3.339,3.339,0,0,1-5.265-3.042,3.339,3.339,0,0,1-3.042-5.265,3.338,3.338,0,0,1,0-6.079,3.339,3.339,0,0,1,3.042-5.265,3.339,3.339,0,0,1,5.265-3.04,3.338,3.338,0,0,1,6.079,0,3.339,3.339,0,0,1,5.265,3.04,3.339,3.339,0,0,1,3.04,5.265,3.338,3.338,0,0,1,0,6.079,3.339,3.339,0,0,1-3.04,5.265,3.339,3.339,0,0,1-5.265,3.042A3.356,3.356,0,0,1,255.9,211.418Zm-2.678-3.978a.663.663,0,0,1,.666.657,2.012,2.012,0,0,0,4.025,0,.665.665,0,0,1,1.238-.331,2.012,2.012,0,0,0,3.483-2.012.666.666,0,0,1,.905-.907,2.012,2.012,0,0,0,2.012-3.483.665.665,0,0,1,.331-1.238,2.012,2.012,0,0,0,0-4.025.665.665,0,0,1-.331-1.238,2.012,2.012,0,0,0-2.012-3.483.666.666,0,0,1-.907-.905,2.012,2.012,0,0,0-3.483-2.012.665.665,0,0,1-1.238-.331,2.012,2.012,0,0,0-4.025,0,.665.665,0,0,1-1.238.331,2.011,2.011,0,0,0-3.483,2.012.667.667,0,0,1-.907.907,2.012,2.012,0,0,0-2.012,3.483.665.665,0,0,1-.331,1.238,2.012,2.012,0,0,0,0,4.025.665.665,0,0,1,.331,1.238,2.012,2.012,0,0,0,2.012,3.483.667.667,0,0,1,.907.907,2.012,2.012,0,0,0,3.483,2.012.664.664,0,0,1,.572-.326Z" transform="translate(-188.767 -143.808)" fill="#002855"/><path d="M79.723,62.664H74.615V61.332h5.107a3.012,3.012,0,0,0,3.008-3.008V4.34a3.012,3.012,0,0,0-3.008-3.008H4.34A3.012,3.012,0,0,0,1.331,4.34V58.326A3.012,3.012,0,0,0,4.34,61.335h55.3v1.331H4.34A4.345,4.345,0,0,1,0,58.326V4.34A4.343,4.343,0,0,1,4.34,0H79.725a4.345,4.345,0,0,1,4.34,4.34V58.326a4.345,4.345,0,0,1-4.34,4.34Z" fill="#002855"/><path d="M74.073,75.916H29.443a.665.665,0,0,1-.666-.666,4.567,4.567,0,0,0-4.562-4.562.665.665,0,0,1-.666-.666V29.893a.665.665,0,0,1,.666-.666,4.567,4.567,0,0,0,4.562-4.562A.665.665,0,0,1,29.443,24h61.63a.665.665,0,0,1,.666.666A4.567,4.567,0,0,0,96.3,29.227a.665.665,0,0,1,.666.666V66.507H95.634V30.521a5.906,5.906,0,0,1-5.189-5.189H30.071a5.906,5.906,0,0,1-5.189,5.189V69.4a5.906,5.906,0,0,1,5.189,5.189h44v1.331Z" transform="translate(-18.325 -18.676)" fill="#002855"/><path d="M153.188,67.088H131.445a2.567,2.567,0,0,1-2.565-2.565V62.995a2.567,2.567,0,0,1,2.565-2.565h21.743a2.566,2.566,0,0,1,2.563,2.565v1.529A2.567,2.567,0,0,1,153.188,67.088Zm-21.743-5.325A1.235,1.235,0,0,0,130.211,63v1.529a1.235,1.235,0,0,0,1.234,1.234h21.743a1.233,1.233,0,0,0,1.231-1.234V63a1.235,1.235,0,0,0-1.231-1.234Z" transform="translate(-100.286 -47.022)" fill="#002855"/><path d="M170.122,116H157.106a.666.666,0,1,1,0-1.331h13.017a.666.666,0,1,1,0,1.331Z" transform="translate(-121.731 -89.229)" fill="#002855"/><path d="M135.214,147.111H94a.666.666,0,1,1,0-1.331h41.218a.666.666,0,1,1,0,1.331Z" transform="translate(-72.623 -113.436)" fill="#002855"/><path d="M135.214,171.111H94a.666.666,0,1,1,0-1.331h41.218a.666.666,0,1,1,0,1.331Z" transform="translate(-72.623 -132.112)" fill="#002855"/><path d="M160.825,193.771H140.216a.666.666,0,1,1,0-1.331h20.609a.666.666,0,1,1,0,1.331Z" transform="translate(-108.589 -149.744)" fill="#002855"/><circle cx="6.805" cy="6.805" r="6.805" transform="translate(60.323 47.504)" fill="#023e7d"/><path d="M282.219,308.046a1.908,1.908,0,0,1-.552-.084.64.64,0,0,1-.177-.091l-5.782-4.153c-1.189.892-4.681,3.5-5.467,4.007a1.341,1.341,0,0,1-1.294.18,1.7,1.7,0,0,1-.892-1.191.751.751,0,0,1-.016-.14V290.11h1.331v16.371a.851.851,0,0,0,.075.162.449.449,0,0,0,.073-.042c.89-.572,5.729-4.209,5.777-4.244a.666.666,0,0,1,.788-.009l6.07,4.36a.336.336,0,0,0,.14-.007.452.452,0,0,0,.033-.115V289.68h1.331v16.955a.514.514,0,0,1,0,.084,1.4,1.4,0,0,1-1.435,1.325Z" transform="translate(-208.572 -225.41)" fill="#002855"/><path d="M290.09,290.44v15.107l2.767-2.063,2.957,2.125V290.691s-.936,2.259-2.614,2.259S290.776,292.486,290.09,290.44Z" transform="translate(-225.729 -226.002)" fill="#023e7d"/><path d="M293.48,303.94a.668.668,0,0,1-.388-.124l-2.563-1.841-2.374,1.773a.666.666,0,0,1-1.065-.532V288.107a.666.666,0,0,1,1.3-.211c.63,1.877,1.18,2.055,2.48,2.055,1.189,0,1.99-1.83,2-1.85a.666.666,0,0,1,1.28.257v14.918a.665.665,0,0,1-.666.666Zm-2.958-3.457a.673.673,0,0,1,.388.124l1.9,1.369V290.448a2.862,2.862,0,0,1-1.948.832,3.532,3.532,0,0,1-2.445-.719v11.324l1.7-1.271a.659.659,0,0,1,.4-.133Z" transform="translate(-223.395 -223.669)" fill="#002855"/></g></g><g transform="translate(4329 3288)" fill="#fff" stroke="#707070" stroke-width="1" opacity="0"><rect width="132" height="132" stroke="none"/><rect x="0.5" y="0.5" width="131" height="131" fill="none"/></g></g></svg>