<svg xmlns="http://www.w3.org/2000/svg" width="132" height="132" viewBox="0 0 132 132"><g transform="translate(-4066 -4128)"><g transform="translate(3226.001 1393.047)"><g transform="translate(845.999 2790.133)"><path d="M421.6,848.441h-7.373a1.5,1.5,0,0,0-1.492,1.491v1.044h-3.955a1.5,1.5,0,0,0-1.492,1.491v.7a13.094,13.094,0,0,1-5.313-1.7l-8.357-4.472c-.194-.089-4.85-2.1-9.059-.387l-6.7,2.445-4.821-4.86a.947.947,0,0,0-1.343,0L355.954,859.77a.947.947,0,0,0-.284.671,1,1,0,0,0,.269.671L382.787,888.2a.949.949,0,0,0,.672.283h0a.95.95,0,0,0,.672-.283l14.655-14.669c.284.015.567.045.821.045a13.481,13.481,0,0,0,2.865-.3,11.659,11.659,0,0,0,6.074-4.949c.075,0,.149.045.239.045h4.358a1.437,1.437,0,0,1,1.074,0h7.373a1.5,1.5,0,0,0,1.492-1.491v-16.92a1.5,1.5,0,0,0-1.492-1.491Z" transform="translate(-351.183 -843.913)" fill="#002855"/><path d="M371.242,857.376a6.391,6.391,0,0,0,3.339,2.877l3.4,1.163a5.666,5.666,0,1,1-7.17-6.276A4.588,4.588,0,0,0,371.242,857.376Z" transform="translate(-345.739 -838.382)" fill="#fff"/><path d="M374.265,856.141a7.556,7.556,0,1,0,8.557,8.929l5.784,2a.993.993,0,0,1,.074.1,7.779,7.779,0,0,0,1.461,7.364l-3.861,3.876a8.467,8.467,0,0,0-10.509-.015l-15.22-15.37a8.151,8.151,0,0,0,.06-10.092l4.01-3.965a8.326,8.326,0,0,0,10.554.045l4.07,4.1a4.577,4.577,0,0,0-4.994,3.026Z" transform="translate(-348.767 -841.431)" fill="#023e7d"/><path d="M368.15,845.44l3.906,3.951a6.551,6.551,0,0,1-7.856-.045Z" transform="translate(-346.977 -843.164)" fill="#fff"/><path d="M360.927,852.52a6.263,6.263,0,0,1-.045,7.409l-3.682-3.712,3.727-3.682Z" transform="translate(-350.432 -839.673)" fill="#fff"/><path d="M375.576,873.983l-3.906-3.95a6.574,6.574,0,0,1,7.826.015Z" transform="translate(-343.298 -831.683)" fill="#fff"/><path d="M381.722,866.658a5.767,5.767,0,0,1-1.208-4.368,7.344,7.344,0,0,0,1.461.85h0a8.208,8.208,0,0,0,2.281.969l-2.549,2.549Z" transform="translate(-338.966 -834.864)" fill="#fff"/><path d="M394.517,870.137s-3.935.879-6.872-.954a5.468,5.468,0,0,1-2.519-2.147l-.179-.343-11.717-4.025a4.431,4.431,0,0,1-2.251-1.909,3.282,3.282,0,0,1,0-2.609,2.737,2.737,0,0,1,3.324-1.968l13.088,4.174a.966.966,0,0,0,1.193-.611.954.954,0,0,0-.611-1.193l-10-3.175-6.067-6.127,5.9-2.161c3.458-1.4,7.528.328,7.543.328h0l8.229,4.4a15.2,15.2,0,0,0,6.261,1.982v11.568a9.754,9.754,0,0,1-5.337,4.785Z" transform="translate(-343.755 -842.623)" fill="#fff"/><rect width="3.533" height="13.565" transform="translate(58.021 8.971)" fill="#023e7d"/><path d="M401.724,864.33H395.18v-16.1h6.544Z" transform="translate(-331.718 -841.794)" fill="#fff"/><path d="M413.762,882.2a7.724,7.724,0,0,0-4.254.477c-.343.1-.687.223-1.03.313l-9.149,2.445a5.789,5.789,0,0,0-2.985-3.771L385.2,877.918a1.984,1.984,0,0,1-.836-.686c-3.149-3.011-6.373-4.338-9.522-3.906-4.209.552-6.97,4.01-7.85,5.262h-4.851a.892.892,0,0,0-.343.074h-8.179a.961.961,0,0,0-.955.954v18.1a.961.961,0,0,0,.955.954h8.522a.961.961,0,0,0,.955-.954V896.06h4.4a.962.962,0,0,0,.955-.954v-.924a7.328,7.328,0,0,1,4.865,1.267l8.313,4.457a9.365,9.365,0,0,0,5.194,1.357,15.432,15.432,0,0,0,3.791-.477l20.223-7.349c2.567-.94,7.925-2.877,6.627-7.722a4.856,4.856,0,0,0-3.7-3.488Z" transform="translate(-352.66 -829.442)" fill="#002855"/><path d="M360.549,894.329H353.93V878.14h6.619v16.189Z" transform="translate(-352.037 -827.04)" fill="#fff"/><rect width="3.444" height="13.655" transform="translate(10.42 51.025)" fill="#023e7d"/><path d="M404.925,890.992,384.8,898.326s-4.562,1.207-7.424-.7l-8.244-4.412a9.079,9.079,0,0,0-5.9-1.6V879.186c.581-.864,3.041-4.144,6.649-4.606,2.564-.343,5.232.8,7.811,3.249A3.489,3.489,0,0,0,379.4,879.1l10.942,3.668a3.553,3.553,0,0,1,1.58,4.785,3.194,3.194,0,0,1-3.682,1.505L375.1,884.761a.948.948,0,0,0-.582,1.8l13.163,4.293a4.977,4.977,0,0,0,5.948-2.46,6.278,6.278,0,0,0,.477-1.64l9.6-2.579c.373-.1.746-.223,1.1-.342a5.973,5.973,0,0,1,3.235-.433,2.973,2.973,0,0,1,2.311,2.132c.7,2.624-1.565,4.04-5.441,5.441Z" transform="translate(-347.397 -828.818)" fill="#fff"/></g><path d="M139.418,71.9H87.371a.908.908,0,1,1,0-1.816h51.115V15.87L124.234,1.816H85.715V21.344a.933.933,0,0,1-1.865,0V.908A.919.919,0,0,1,84.782,0h39.841a.94.94,0,0,1,.663.27l14.795,14.591a.9.9,0,0,1,.269.638v55.49A.919.919,0,0,1,139.418,71.9Z" transform="translate(825.649 2757.953)" fill="#002855"/><path d="M290.93,39.1H276.178a.917.917,0,0,1-.918-.918V29.358a.918.918,0,0,1,1.836,0v7.909H290.93a.918.918,0,1,1,0,1.836Z" transform="translate(674.15 2735.317)" fill="#002855"/><path d="M163.861,49.536H143.728a.918.918,0,1,1,0-1.836h20.133a.918.918,0,0,1,0,1.836Z" transform="translate(779.172 2719.985)" fill="#002855"/><path d="M158.6,73.536H143.728a.918.918,0,1,1,0-1.836H158.6a.918.918,0,1,1,0,1.836Z" transform="translate(779.119 2700.718)" fill="#002855"/><path d="M210.407,159.165h-.022a.913.913,0,0,1-.68-.326l-6.227-7.376a.918.918,0,0,1,1.4-1.183l5.558,6.584,13.079-14.054a.918.918,0,0,1,1.345,1.251l-13.785,14.811a.914.914,0,0,1-.671.292Z" transform="translate(731.458 2643.983)" fill="#002855"/><path d="M182.28,160.12a14.43,14.43,0,1,1,7.613-26.691.918.918,0,0,1-.971,1.559,12.595,12.595,0,1,0,5.952,10.7,12.7,12.7,0,0,0-.284-2.671.918.918,0,0,1,1.8-.388A14.444,14.444,0,0,1,182.28,160.12Z" transform="translate(759.644 2652.86)" fill="#002855"/></g><g transform="translate(4066 4128)" fill="#fff" stroke="#707070" stroke-width="1" opacity="0"><rect width="132" height="132" stroke="none"/><rect x="0.5" y="0.5" width="131" height="131" fill="none"/></g></g></svg>