<svg xmlns="http://www.w3.org/2000/svg" width="132" height="132" viewBox="0 0 132 132"><g transform="translate(-4592 -3288)"><g transform="translate(4020 598.5)"><path d="M25.669,23.721H3.5V14.584a11.084,11.084,0,1,1,22.169,0Z" transform="translate(575.5 2709)" fill="#023e7d" stroke="#002855" stroke-linecap="round" stroke-linejoin="round" stroke-width="2"/><path d="M41.45,3.5h61.719a11.084,11.084,0,0,1,11.084,11.084V37.092" transform="translate(548.635 2709)" fill="none" stroke="#002855" stroke-linecap="round" stroke-linejoin="round" stroke-width="2"/><path d="M117.35,318.9a11.084,11.084,0,0,0,11.084-11.084V302.95h61.074v5.094a11.084,11.084,0,0,1-11.084,11.084L117.35,318.9" transform="translate(495.024 2497.372)" fill="#023e7d" stroke="#002855" stroke-linecap="round" stroke-linejoin="round" stroke-width="2"/><path d="M79.4,72.73v72.111a11.084,11.084,0,0,0,11.084,11.084" transform="translate(521.797 2660.352)" fill="none" stroke="#002855" stroke-linecap="round" stroke-linejoin="round" stroke-width="2"/><path d="M234.268,145.474v31.632H190.48V145.474l21.894-20.294Z" transform="translate(443.253 2623.11)" fill="none" stroke="#002855" stroke-linecap="round" stroke-linejoin="round" stroke-width="2"/><path d="M211.4,125.652h9.478L189.508,97.18,158.18,125.652h9.434l21.894-20.294Z" transform="translate(466.12 2642.815)" fill="#023e7d" stroke="#002855" stroke-linecap="round" stroke-linejoin="round" stroke-width="2"/><rect width="12.723" height="17.785" transform="translate(649.29 2782.475)" fill="none" stroke="#002855" stroke-linecap="round" stroke-linejoin="round" stroke-width="2"/><path d="M325.14,127.852v-14H320.4v9.7Z" transform="translate(351.28 2631.012)" fill="#023e7d" stroke="#002855" stroke-linecap="round" stroke-linejoin="round" stroke-width="2"/><circle cx="4.501" cy="4.501" r="4.501" transform="translate(651.15 2761.422)" fill="none" stroke="#002855" stroke-linecap="round" stroke-linejoin="round" stroke-width="2"/><circle cx="1.136" cy="1.136" r="1.136" transform="translate(657.068 2790.211)" fill="#002855"/><line x2="11.163" transform="translate(634.807 2730.084)" fill="none" stroke="#002855" stroke-linecap="round" stroke-linejoin="round" stroke-width="2.5"/><line x2="14.464" transform="translate(634.81 2736.746)" fill="none" stroke="#002855" stroke-linecap="round" stroke-linejoin="round" stroke-width="2.5"/><line x1="5.973" transform="translate(615.48 2753.157)" fill="none" stroke="#002855" stroke-linecap="round" stroke-linejoin="round" stroke-width="2.5"/><line x2="11.426" transform="translate(615.482 2759.237)" fill="none" stroke="#002855" stroke-linecap="round" stroke-linejoin="round" stroke-width="2.5"/><line x1="14.25" transform="translate(612.279 2777.385)" fill="none" stroke="#002855" stroke-linecap="round" stroke-linejoin="round" stroke-width="2.5"/><line x1="3.549" transform="translate(612.275 2783.551)" fill="none" stroke="#002855" stroke-linecap="round" stroke-linejoin="round" stroke-width="2.5"/><path d="M130.4,54.733a4.218,4.218,0,1,0,4.218-4.218,4.218,4.218,0,1,1,4.218-4.218" transform="translate(485.71 2681.688)" fill="none" stroke="#002855" stroke-linecap="round" stroke-linejoin="round" stroke-width="2.5"/><line y1="2.208" transform="translate(620.332 2721.559)" fill="none" stroke="#002855" stroke-linecap="round" stroke-linejoin="round" stroke-width="2.5"/><line y2="1.785" transform="translate(620.332 2740.742)" fill="none" stroke="#002855" stroke-linecap="round" stroke-linejoin="round" stroke-width="2.5"/></g><g transform="translate(4592 3288)" fill="#fff" stroke="#707070" stroke-width="1" opacity="0.003"><rect width="132" height="132" stroke="none"/><rect x="0.5" y="0.5" width="131" height="131" fill="none"/></g></g></svg>