<svg xmlns="http://www.w3.org/2000/svg" width="57" height="57" viewBox="0 0 57 57"><g transform="translate(-335 -5753)"><g transform="translate(343.654 5765.5)"><path d="M32,0H6A6.016,6.016,0,0,0,0,6.03v14.3a6.016,6.016,0,0,0,6,6.03h8.955l3.058,4.982a1.147,1.147,0,0,0,.1.143,1.022,1.022,0,0,0,1.772.006.729.729,0,0,0,.1-.148l3.058-4.979H32a6.016,6.016,0,0,0,6-6.03V6.03A6.016,6.016,0,0,0,32,0Z" fill="#fff"/><path d="M17.973,34.286A1.483,1.483,0,1,1,19.456,32.8a1.483,1.483,0,0,1-1.483,1.483Zm.508-5.076a3.063,3.063,0,0,0-1.962.909V26.46H14.21v9.616h2.332v-.753a2.216,2.216,0,0,0,1.939.993,3.4,3.4,0,0,0,3.252-3.587s-.118-3.518-3.252-3.518Z" transform="translate(-10.109 -18.726)" fill="#2b2b2b"/><path d="M42.85,25.71v2.225s1.053-.049,1.053,1.913v5.694h2.225V29.323s.1-3.613-3.278-3.613Z" transform="translate(-30.375 -18.195)" fill="#2b2b2b"/><path d="M63.661,41.144a1.483,1.483,0,1,1,1.483-1.483,1.483,1.483,0,0,1-1.483,1.483Zm0-5.044s-3.812,0-3.812,3.561a3.444,3.444,0,0,0,3.812,3.512s3.9-.006,3.9-3.512c0,0,.127-3.561-3.9-3.561Z" transform="translate(-42.401 -25.563)" fill="#2b2b2b"/><path d="M94.444,41.15a1.483,1.483,0,1,1,1.483-1.483,1.483,1.483,0,0,1-1.483,1.483Zm1.379-4.811v.646a2.525,2.525,0,0,0-1.936-.877,3.184,3.184,0,0,0-3.267,3.538s-.038,3.423,3.174,3.423a2.63,2.63,0,0,0,2.026-.88v.54a1.468,1.468,0,0,1-1.472,1.685h-.557V46.46h.9a3.351,3.351,0,0,0,3.374-3.607V36.339H95.82Z" transform="translate(-64.163 -25.55)" fill="#2b2b2b"/></g><rect width="57" height="57" transform="translate(335 5753)" fill="none"/></g></svg>